<?xml version="1.0" encoding="UTF-8" standalone="no"?>
<!-- Created with Inkscape (http://www.inkscape.org/) -->

<svg
   version="1.1"
   id="svg1"
   width="449.60001"
   height="189.12"
   viewBox="0 0 449.60001 189.12"
   sodipodi:docname="uni-leipzig.svg"
   inkscape:version="1.4 (unknown)"
   xmlns:inkscape="http://www.inkscape.org/namespaces/inkscape"
   xmlns:sodipodi="http://sodipodi.sourceforge.net/DTD/sodipodi-0.dtd"
   xmlns="http://www.w3.org/2000/svg"
   xmlns:svg="http://www.w3.org/2000/svg">
  <defs
     id="defs1" />
  <sodipodi:namedview
     id="namedview1"
     borderopacity="1.0"
     inkscape:showpageshadow="2"
     inkscape:pageopacity="0.0"
     inkscape:pagecheckerboard="0"
     inkscape:zoom="4.0324733"
     inkscape:cx="224.8"
     inkscape:cy="94.482957"
     inkscape:window-width="1920"
     inkscape:window-height="1131"
     inkscape:window-x="0"
     inkscape:window-y="0"
     inkscape:window-maximized="1"
     inkscape:current-layer="g1">
    <inkscape:page
       x="0"
       y="0"
       inkscape:label="1"
       id="page1"
       width="449.60001"
       height="189.12"
       margin="0"
       bleed="0" />
  </sodipodi:namedview>
  <g
     id="g1"
     inkscape:groupmode="layer"
     inkscape:label="1">
    <g
       id="group-R5">
      <path
         id="path2"
         d="m 2879.25,925.059 v -20.313 h 42.14 V 747.121 h 22.13 v 157.625 h 42.13 v 20.313 h -106.4"
         style="fill:currentColor;fill-opacity:1;fill-rule:nonzero;stroke:none"
         transform="matrix(0.13333333,0,0,-0.13333333,0,189.12)" />
      <path
         id="path3"
         d="m 2730.84,925.059 h -106.41 v -20.313 h 42.14 V 747.121 h 22.13 v 157.625 h 42.14 v 20.313"
         style="fill:currentColor;fill-opacity:1;fill-rule:nonzero;stroke:none"
         transform="matrix(0.13333333,0,0,-0.13333333,0,189.12)" />
      <path
         id="path4"
         d="m 2571.1,747.121 h 22.14 V 925.059 H 2571.1 V 747.121"
         style="fill:currentColor;fill-opacity:1;fill-rule:nonzero;stroke:none"
         transform="matrix(0.13333333,0,0,-0.13333333,0,189.12)" />
      <path
         id="path5"
         d="m 2486.62,852.355 -12.72,4.961 c -11.06,4.247 -24.71,11.551 -24.71,25.489 0,15.586 15.54,25.242 29.66,25.242 13.42,0 21.89,-5.645 28.48,-16.746 l 17.66,10.625 c -9.65,17.234 -25.88,26.894 -45.67,26.894 -26.83,0 -52.27,-17.226 -52.27,-46.015 0,-24.778 18.37,-36.36 38.61,-45.071 l 12.25,-5.195 c 15.29,-6.375 30.6,-14.637 30.6,-33.75 0,-18.641 -13.66,-34.687 -32.72,-34.687 -19.07,0 -34.61,14.16 -34.38,33.742 l -22.37,-4.739 c 3.78,-28.535 26.15,-49.773 54.86,-49.773 31.79,0 56.74,23.113 56.74,55.457 0,29.738 -18.84,43.652 -44.02,53.566"
         style="fill:currentColor;fill-opacity:1;fill-rule:nonzero;stroke:none"
         transform="matrix(0.13333333,0,0,-0.13333333,0,189.12)" />
      <path
         id="path6"
         d="m 2243.85,767.402 h -73.22 v 67.258 h 71.09 v 20.293 h -71.09 v 49.793 h 73.22 v 20.313 h -95.34 V 747.121 h 95.34 v 20.281"
         style="fill:currentColor;fill-opacity:1;fill-rule:nonzero;stroke:none"
         transform="matrix(0.13333333,0,0,-0.13333333,0,189.12)" />
      <path
         id="path7"
         d="m 2125.54,925.059 h -24.25 l -52.74,-131.7 -52.97,131.7 h -24.25 l 77.22,-187.403 76.99,187.403"
         style="fill:currentColor;fill-opacity:1;fill-rule:nonzero;stroke:none"
         transform="matrix(0.13333333,0,0,-0.13333333,0,189.12)" />
      <path
         id="path8"
         d="M 1948.23,925.059 H 1926.1 V 747.121 h 22.13 v 177.938"
         style="fill:currentColor;fill-opacity:1;fill-rule:nonzero;stroke:none"
         transform="matrix(0.13333333,0,0,-0.13333333,0,189.12)" />
      <path
         id="path9"
         d="M 1744.46,879.727 1877.7,739.785 v 185.274 h -22.12 V 793.594 L 1722.33,933.547 V 747.121 h 22.13 v 132.606"
         style="fill:currentColor;fill-opacity:1;fill-rule:nonzero;stroke:none"
         transform="matrix(0.13333333,0,0,-0.13333333,0,189.12)" />
      <path
         id="path10"
         d="m 1617.29,743.332 c 40.72,0 64.97,29.969 64.97,69.148 v 112.579 h -22.13 V 820.02 c 0,-29.012 -8.71,-55.918 -42.84,-55.918 -34.15,0 -42.85,26.906 -42.85,55.918 v 105.039 h -22.13 V 812.48 c 0,-39.179 24.25,-69.148 64.98,-69.148"
         style="fill:currentColor;fill-opacity:1;fill-rule:nonzero;stroke:none"
         transform="matrix(0.13333333,0,0,-0.13333333,0,189.12)" />
      <path
         id="path11"
         d="m 2319.87,840.793 h -7.06 v 64.422 h 5.89 c 21.89,0 48.26,-3.992 48.26,-31.856 0,-28.32 -24.48,-32.566 -47.09,-32.566 z m 67.81,33.504 c 0,17.004 -8.48,33.75 -23.32,42.5 -14.12,8 -31.06,8.262 -46.84,8.262 h -26.83 V 747.121 h 22.12 v 75.274 h 9.19 l 52.25,-75.274 h 26.84 l -56.03,77.383 c 25.67,3.074 42.62,24.324 42.62,49.793"
         style="fill:currentColor;fill-opacity:1;fill-rule:nonzero;stroke:none"
         transform="matrix(0.13333333,0,0,-0.13333333,0,189.12)" />
      <path
         id="path12"
         d="m 2839.84,897.941 c 7.78,0 14.12,6.368 14.12,14.383 0,7.793 -6.34,14.16 -14.12,14.16 -8,0 -14.36,-6.367 -14.36,-14.16 0,-8.015 6.36,-14.383 14.36,-14.383"
         style="fill:currentColor;fill-opacity:1;fill-rule:nonzero;stroke:none"
         transform="matrix(0.13333333,0,0,-0.13333333,0,189.12)" />
      <path
         id="path13"
         d="m 2773.39,812.012 31.53,71.972 31.56,-71.972 z m -53.2,-64.891 h 23.77 l 20.25,44.59 h 81.44 l 20.25,-44.59 h 23.79 l -84.77,185.469 -84.73,-185.469"
         style="fill:currentColor;fill-opacity:1;fill-rule:nonzero;stroke:none"
         transform="matrix(0.13333333,0,0,-0.13333333,0,189.12)" />
      <path
         id="path14"
         d="m 2770.02,897.941 c 8.02,0 14.37,6.368 14.37,14.383 0,7.793 -6.35,14.16 -14.37,14.16 -7.77,0 -14.13,-6.367 -14.13,-14.16 0,-8.015 6.36,-14.383 14.13,-14.383"
         style="fill:currentColor;fill-opacity:1;fill-rule:nonzero;stroke:none"
         transform="matrix(0.13333333,0,0,-0.13333333,0,189.12)" />
      <path
         id="path15"
         d="m 1574.43,661.809 h -22.12 V 483.867 h 76.03 v 20.293 h -53.91 v 157.649"
         style="fill:currentColor;fill-opacity:1;fill-rule:nonzero;stroke:none"
         transform="matrix(0.13333333,0,0,-0.13333333,0,189.12)" />
      <path
         id="path16"
         d="m 2274.42,553.254 h 45.91 c -0.95,-29.035 -30.59,-52.871 -58.15,-52.871 -38.37,0 -68.97,35.398 -68.97,72.683 0,39.883 31.08,72.231 70.86,72.231 21.67,0 43.07,-11.567 55.79,-29.043 l 15.54,14.879 c -17.42,21.933 -44.73,34.453 -72.27,34.453 -51.09,0 -92.05,-42 -92.05,-93.223 0,-49.316 40.02,-92.273 89.7,-92.273 49.68,0 84.03,37.519 84.03,86.375 v 7.082 h -70.39 v -20.293"
         style="fill:currentColor;fill-opacity:1;fill-rule:nonzero;stroke:none"
         transform="matrix(0.13333333,0,0,-0.13333333,0,189.12)" />
      <path
         id="path17"
         d="m 2117.83,483.867 h 22.14 v 177.942 h -22.14 V 483.867"
         style="fill:currentColor;fill-opacity:1;fill-rule:nonzero;stroke:none"
         transform="matrix(0.13333333,0,0,-0.13333333,0,189.12)" />
      <path
         id="path18"
         d="m 1974.23,659.816 v -20.312 h 77.22 l -89.93,-157.637 h 125.95 v 20.305 h -89.94 l 89.94,157.644 h -113.24"
         style="fill:currentColor;fill-opacity:1;fill-rule:nonzero;stroke:none"
         transform="matrix(0.13333333,0,0,-0.13333333,0,189.12)" />
      <path
         id="path19"
         d="m 1788.78,483.867 h 22.14 v 177.942 h -22.14 V 483.867"
         style="fill:currentColor;fill-opacity:1;fill-rule:nonzero;stroke:none"
         transform="matrix(0.13333333,0,0,-0.13333333,0,189.12)" />
      <path
         id="path20"
         d="m 1650.42,483.867 h 95.36 v 20.293 h -73.23 v 67.246 h 71.1 v 20.305 h -71.1 v 49.805 h 73.23 v 20.293 h -95.36 V 483.867"
         style="fill:currentColor;fill-opacity:1;fill-rule:nonzero;stroke:none"
         transform="matrix(0.13333333,0,0,-0.13333333,0,189.12)" />
      <path
         id="path21"
         d="m 1889.24,578.262 h -7.08 v 63.711 h 5.9 c 21.89,0 48.25,-3.301 48.25,-31.153 0,-28.308 -24.48,-32.558 -47.07,-32.558 z m -3.77,83.547 h -25.43 V 483.867 h 22.12 v 74.571 h 12.72 c 33.66,0 62.16,14.394 62.16,51.925 0,32.567 -16.96,51.446 -71.57,51.446"
         style="fill:currentColor;fill-opacity:1;fill-rule:nonzero;stroke:none"
         transform="matrix(0.13333333,0,0,-0.13333333,0,189.12)" />
      <path
         id="path22"
         d="m 1419.4,250.75 h 5.21 v 912.13 h -5.21 V 250.75"
         style="fill:currentColor;fill-opacity:1;fill-rule:nonzero;stroke:none"
         transform="matrix(0.13333333,0,0,-0.13333333,0,189.12)" />
      <path
         id="path23"
         d="m 835.637,256.02 c -248.574,0 -450.793,202.234 -450.793,450.808 0,248.574 202.219,450.792 450.793,450.792 248.573,0 450.803,-202.218 450.803,-450.792 0,-248.574 -202.23,-450.808 -450.803,-450.808 z m 0,906.86 c -251.473,0 -456.067,-204.599 -456.067,-456.052 0,-251.465 204.594,-456.078 456.067,-456.078 251.473,0 456.063,204.613 456.063,456.078 0,251.453 -204.59,456.052 -456.063,456.052"
         style="fill:currentColor;fill-opacity:1;fill-rule:nonzero;stroke:none"
         transform="matrix(0.13333333,0,0,-0.13333333,0,189.12)" />
      <path
         id="path24"
         d="m 723.711,841.563 c 0.09,-0.059 1.824,-0.79 1.875,-0.79 0.117,0 1.039,-0.449 1.144,-0.46 0.852,0.253 1.192,1.054 1.629,1.914 0.032,0.039 2.407,4.062 4.168,7.218 1.008,1.825 2.461,3.7 5.672,2.821 1.031,-0.254 2.891,-0.926 4.297,-1.473 0.07,0.184 0.149,0.352 0.274,0.516 0.218,0.273 0.418,0.546 0.582,0.871 0.003,0 0.183,0.41 0.226,0.457 0.176,0.468 0.313,0.918 0.453,1.41 -0.207,0.269 -0.332,0.613 -0.414,0.953 -0.379,0.176 -0.672,0.469 -0.898,0.793 -0.606,0.203 -1.192,0.418 -1.727,0.645 -4.871,2 -9.797,0.32 -12.422,-4.395 -1.336,-2.414 -4.023,-5.859 -4.836,-7.512 -0.504,-0.976 -0.898,-2.246 -0.023,-2.968"
         style="fill:currentColor;fill-opacity:1;fill-rule:nonzero;stroke:none"
         transform="matrix(0.13333333,0,0,-0.13333333,0,189.12)" />
      <path
         id="path25"
         d="m 720.977,852.656 c 1.363,-0.32 2.652,0.86 2.933,1.446 0.254,0.597 -0.371,2.011 -0.648,2.558 -0.27,0.52 -0.856,0.977 -1.879,1.34 -1.035,0.352 -2.082,-0.031 -2.082,-0.031 0,0 -1.649,-0.606 -2.051,-1.309 -0.414,-0.738 0.145,-1.883 0.703,-2.586 0.582,-0.715 1.652,-1.086 3.024,-1.418"
         style="fill:currentColor;fill-opacity:1;fill-rule:nonzero;stroke:none"
         transform="matrix(0.13333333,0,0,-0.13333333,0,189.12)" />
      <path
         id="path26"
         d="m 720.203,837.336 c -1.156,0.848 -2.355,-0.285 -2.355,-0.285 0,0 -0.582,-0.821 -0.582,-1.992 0,-1.172 -0.032,-3.282 5.043,-4.493 1.914,-0.468 3,0.012 3.625,1.575 1.339,3.398 -3.231,3.367 -5.731,5.195"
         style="fill:currentColor;fill-opacity:1;fill-rule:nonzero;stroke:none"
         transform="matrix(0.13333333,0,0,-0.13333333,0,189.12)" />
      <path
         id="path27"
         d="m 950.984,849.375 c 1.727,-0.195 3.157,1.438 3.407,2.207 0.25,0.754 -0.735,2.414 -1.137,3.027 -0.41,0.625 -1.191,1.114 -2.524,1.387 -1.335,0.313 -2.55,-0.312 -2.55,-0.312 0,0 -1.953,-0.965 -2.356,-1.922 -0.402,-0.957 0.438,-2.285 1.254,-3.086 0.797,-0.774 2.176,-1.094 3.906,-1.301"
         style="fill:currentColor;fill-opacity:1;fill-rule:nonzero;stroke:none"
         transform="matrix(0.13333333,0,0,-0.13333333,0,189.12)" />
      <path
         id="path28"
         d="m 998.574,732.93 c 1.25,-0.125 2.266,1.035 2.466,1.593 0.17,0.547 -0.54,1.747 -0.82,2.176 -0.302,0.442 -0.861,0.781 -1.818,1.008 -0.961,0.223 -1.839,-0.234 -1.839,-0.234 0,0 -1.418,-0.696 -1.708,-1.387 -0.281,-0.695 0.325,-1.652 0.911,-2.219 0.566,-0.554 1.57,-0.789 2.808,-0.937"
         style="fill:currentColor;fill-opacity:1;fill-rule:nonzero;stroke:none"
         transform="matrix(0.13333333,0,0,-0.13333333,0,189.12)" />
      <path
         id="path29"
         d="m 925.953,855.84 c -0.598,0.43 -1.504,0.605 -2.844,0.41 -1.336,-0.164 -2.285,-1.152 -2.285,-1.152 0,0 -1.484,-1.61 -1.539,-2.645 -0.043,-1.027 1.203,-1.992 2.242,-2.453 1.028,-0.449 2.422,-0.262 4.121,0.148 1.692,0.391 2.454,2.442 2.434,3.231 -0.035,0.801 -1.519,2.012 -2.129,2.461"
         style="fill:currentColor;fill-opacity:1;fill-rule:nonzero;stroke:none"
         transform="matrix(0.13333333,0,0,-0.13333333,0,189.12)" />
      <path
         id="path30"
         d="m 740.98,846.719 c -1.074,0.254 -2.042,-0.254 -2.042,-0.254 0,0 -1.598,-0.789 -1.907,-1.563 -0.328,-0.769 0.34,-1.824 1.004,-2.468 0.633,-0.637 1.746,-0.899 3.153,-1.055 1.394,-0.168 2.527,1.16 2.742,1.777 0.203,0.625 -0.594,1.953 -0.918,2.449 -0.336,0.5 -0.961,0.879 -2.032,1.114"
         style="fill:currentColor;fill-opacity:1;fill-rule:nonzero;stroke:none"
         transform="matrix(0.13333333,0,0,-0.13333333,0,189.12)" />
      <path
         id="path31"
         d="m 503.184,467.172 12.379,19.976 10.644,-14.902 z m 45.312,9.957 -16.308,-3.613 -13.442,18.82 8.793,14.129 -3.891,5.441 -32.007,-52.804 60.695,12.656 -3.84,5.371"
         style="fill:currentColor;fill-opacity:1;fill-rule:nonzero;stroke:none"
         transform="matrix(0.13333333,0,0,-0.13333333,0,189.12)" />
      <path
         id="path32"
         d="m 506.055,545.313 -4.946,-2.618 6.954,-13.222 -42.965,-22.606 2.816,-5.351 47.91,25.242 -9.769,18.555"
         style="fill:currentColor;fill-opacity:1;fill-rule:nonzero;stroke:none"
         transform="matrix(0.13333333,0,0,-0.13333333,0,189.12)" />
      <path
         id="path33"
         d="m 500.348,555.168 -2.032,5.828 -36.878,-5.437 -0.051,0.144 30.996,29.16 -42.426,3.731 -0.035,0.148 32.308,18.582 -2.035,5.832 -50.461,-29.14 49.422,-3.75 -36.484,-33.489 57.676,8.391"
         style="fill:currentColor;fill-opacity:1;fill-rule:nonzero;stroke:none"
         transform="matrix(0.13333333,0,0,-0.13333333,0,189.12)" />
      <path
         id="path34"
         d="m 431.898,643.391 20.094,12.175 2.735,-18.093 z m 44.918,-11.653 -16.175,4.16 -3.469,22.864 14.223,8.621 -0.985,6.601 -52.445,-32.566 59.84,-16.203 -0.989,6.523"
         style="fill:currentColor;fill-opacity:1;fill-rule:nonzero;stroke:none"
         transform="matrix(0.13333333,0,0,-0.13333333,0,189.12)" />
      <path
         id="path35"
         d="m 468.676,701.797 0.472,6.144 -36.003,9.707 0.015,0.149 40.047,14.391 -37.414,20.343 0.004,0.137 37.039,4.18 0.477,6.16 -57.918,-6.629 43.851,-23.137 -46.82,-16.191 56.25,-15.254"
         style="fill:currentColor;fill-opacity:1;fill-rule:nonzero;stroke:none"
         transform="matrix(0.13333333,0,0,-0.13333333,0,189.12)" />
      <path
         id="path36"
         d="m 457.996,788.262 -18.836,14.191 23.219,3.602 z m 18.211,-13.731 -13.352,10.02 5.528,22.461 16.445,2.531 1.602,6.465 -60.903,-10.051 49.102,-37.828 1.578,6.402"
         style="fill:currentColor;fill-opacity:1;fill-rule:nonzero;stroke:none"
         transform="matrix(0.13333333,0,0,-0.13333333,0,189.12)" />
      <path
         id="path37"
         d="m 448.406,851.777 45.242,-17.617 2.188,5.625 -45.238,17.629 4.8,12.293 -5.218,2.063 -11.742,-30.129 5.222,-2.039 4.746,12.175"
         style="fill:currentColor;fill-opacity:1;fill-rule:nonzero;stroke:none"
         transform="matrix(0.13333333,0,0,-0.13333333,0,189.12)" />
      <path
         id="path38"
         d="m 521.488,892.188 -4.918,2.675 -10.574,-19.336 -18.652,10.196 10.273,18.789 -4.922,2.687 -10.261,-18.777 -14.114,7.723 10.586,19.335 -4.918,2.704 -13.476,-24.649 47.496,-25.984 13.48,24.637"
         style="fill:currentColor;fill-opacity:1;fill-rule:nonzero;stroke:none"
         transform="matrix(0.13333333,0,0,-0.13333333,0,189.12)" />
      <path
         id="path39"
         d="m 514.902,934.395 c -0.019,-0.02 -0.047,-0.028 -0.121,-0.04 l -1.09,-1.523 -15.777,11.398 1.051,1.446 c 2.125,2.957 4.418,5.254 6.89,6.914 2.461,1.64 5.5,1.152 9.125,-1.465 3.387,-2.461 4.731,-5.168 4.004,-8.117 -0.714,-2.969 -2.054,-5.82 -4.023,-8.524 -0.016,-0.05 -0.043,-0.078 -0.059,-0.089 z m 22.368,-18.594 -19.274,13.937 0.887,1.211 28.859,-0.636 4.328,5.996 -29.722,0.195 c 2.129,3.594 2.82,7.18 2.05,10.742 -0.761,3.555 -2.828,6.563 -6.21,9.004 -4.965,3.586 -9.411,4.297 -13.333,2.141 -3.917,-2.161 -7.398,-5.305 -10.441,-9.426 l -4.574,-6.356 43.898,-31.687 3.532,4.879"
         style="fill:currentColor;fill-opacity:1;fill-rule:nonzero;stroke:none"
         transform="matrix(0.13333333,0,0,-0.13333333,0,189.12)" />
      <path
         id="path40"
         d="m 1139.77,908.156 4.54,3.282 -8.75,12.109 39.33,28.437 -3.53,4.883 -43.88,-31.711 12.29,-17"
         style="fill:currentColor;fill-opacity:1;fill-rule:nonzero;stroke:none"
         transform="matrix(0.13333333,0,0,-0.13333333,0,189.12)" />
      <path
         id="path41"
         d="m 1154.35,884.047 46.95,26.961 -3,5.234 -46.96,-26.965 3.01,-5.23"
         style="fill:currentColor;fill-opacity:1;fill-rule:nonzero;stroke:none"
         transform="matrix(0.13333333,0,0,-0.13333333,0,189.12)" />
      <path
         id="path42"
         d="m 1215.14,870.898 0.85,-2.07 c 0.03,-0.039 0.04,-0.078 0.05,-0.105 0,-0.02 0.02,-0.039 0.04,-0.098 1.34,-3.223 2.13,-6.359 2.33,-9.414 0.22,-3.066 -1.7,-5.422 -5.73,-7.109 -3.58,-1.516 -6.46,-1.379 -8.62,0.351 -2.17,1.758 -3.86,4.16 -5.12,7.266 l -1.56,3.73 z m -44.78,-18.777 21.86,9.149 1.69,-4.024 c 0.11,-0.273 0.22,-0.547 0.34,-0.801 0.1,-0.254 0.22,-0.535 0.33,-0.808 0.84,-1.77 1.86,-3.457 3.05,-5.051 1.19,-1.609 2.7,-2.898 4.55,-3.828 1.86,-0.977 3.86,-1.504 6,-1.531 2.14,-0.039 4.19,0.3 6.18,1.023 0.09,0.039 0.17,0.078 0.25,0.129 0.1,0.027 0.18,0.066 0.27,0.098 2.2,0.925 4.13,2.285 5.78,4.089 1.65,1.817 2.72,3.918 3.22,6.301 0.42,1.992 0.41,3.965 -0.02,5.906 -0.43,1.954 -1,3.868 -1.74,5.735 -0.13,0.32 -0.25,0.613 -0.39,0.918 -0.12,0.332 -0.23,0.652 -0.32,0.957 l -3.45,8.211 -49.94,-20.918 2.34,-5.555"
         style="fill:currentColor;fill-opacity:1;fill-rule:nonzero;stroke:none"
         transform="matrix(0.13333333,0,0,-0.13333333,0,189.12)" />
      <path
         id="path43"
         d="m 1218.27,815.266 c -1.32,-2.766 -2.24,-5.852 -2.79,-9.258 l -0.63,-3.574 c -0.02,-0.11 -0.03,-0.196 -0.04,-0.262 -0.01,-0.102 -0.02,-0.18 -0.04,-0.297 -0.44,-2.637 -1.13,-5.059 -2.03,-7.305 -0.9,-2.226 -2.83,-3.738 -5.8,-4.5 -2.97,-0.773 -5.69,-0.324 -8.19,1.356 -2.48,1.679 -4.09,3.926 -4.83,6.758 -0.74,2.824 -0.39,5.441 1.01,7.832 1.41,2.394 3.43,4.132 6.07,5.207 l -3.15,5.281 c -3.87,-1.895 -6.64,-4.629 -8.34,-8.203 -1.69,-3.535 -2,-7.43 -0.91,-11.649 1.19,-4.543 3.73,-8.019 7.65,-10.441 3.92,-2.422 8.17,-3.035 12.76,-1.844 4.17,1.082 6.98,3.145 8.41,6.141 1.45,3.027 2.49,6.457 3.13,10.285 l 0.55,3.867 c 0.06,0.352 0.13,0.731 0.18,1.141 0.07,0.422 0.15,0.82 0.23,1.25 0.36,1.679 0.94,3.301 1.75,4.875 0.8,1.57 2.11,2.586 3.92,3.066 2.41,0.613 4.59,0.254 6.55,-1.086 1.95,-1.355 3.23,-3.183 3.83,-5.496 0.58,-2.238 0.56,-4.172 -0.08,-5.832 -0.64,-1.64 -1.71,-3.203 -3.2,-4.668 l 4.16,-3.863 c 2.22,2.066 3.72,4.449 4.52,7.144 0.8,2.735 0.82,5.559 0.06,8.481 -1.01,3.902 -3.1,7 -6.27,9.312 -3.19,2.325 -6.8,2.95 -10.89,1.895 -3.75,-0.984 -6.28,-2.852 -7.59,-5.613"
         style="fill:currentColor;fill-opacity:1;fill-rule:nonzero;stroke:none"
         transform="matrix(0.13333333,0,0,-0.13333333,0,189.12)" />
      <path
         id="path44"
         d="m 1238.48,794.023 -0.04,0.024 c -0.01,0 -0.01,-0.024 -0.03,-0.043 l 0.07,0.019"
         style="fill:currentColor;fill-opacity:1;fill-rule:nonzero;stroke:none"
         transform="matrix(0.13333333,0,0,-0.13333333,0,189.12)" />
      <path
         id="path45"
         d="m 1198.73,748.547 53.68,6.98 -0.77,5.977 -53.71,-6.973 0.8,-5.984"
         style="fill:currentColor;fill-opacity:1;fill-rule:nonzero;stroke:none"
         transform="matrix(0.13333333,0,0,-0.13333333,0,189.12)" />
      <path
         id="path46"
         d="m 1201.49,692.344 5.6,0.039 -0.15,22.051 21.26,0.148 0.14,-21.406 5.6,0.047 -0.15,21.406 16.09,0.098 0.16,-22.039 5.6,0.039 -0.21,28.074 -54.14,-0.371 0.2,-28.086"
         style="fill:currentColor;fill-opacity:1;fill-rule:nonzero;stroke:none"
         transform="matrix(0.13333333,0,0,-0.13333333,0,189.12)" />
      <path
         id="path47"
         d="m 1199.64,660.91 -1.1,-5.93 41.02,-7.625 -51.15,-33.429 55.63,-10.371 1.11,5.937 -41.23,7.668 51.21,33.426 -55.49,10.324"
         style="fill:currentColor;fill-opacity:1;fill-rule:nonzero;stroke:none"
         transform="matrix(0.13333333,0,0,-0.13333333,0,189.12)" />
      <path
         id="path48"
         d="m 1221.3,573.371 c -3.63,1.375 -6.77,1.317 -9.44,-0.176 -2.68,-1.496 -5.22,-3.468 -7.64,-5.937 l -2.59,-2.551 c -0.07,-0.059 -0.14,-0.137 -0.18,-0.184 -0.06,-0.058 -0.12,-0.128 -0.2,-0.207 -1.89,-1.894 -3.85,-3.484 -5.88,-4.773 -2.04,-1.309 -4.49,-1.414 -7.35,-0.324 -2.86,1.078 -4.82,3.027 -5.88,5.84 -1.06,2.812 -1.07,5.578 -0.03,8.3 1.04,2.735 2.82,4.668 5.35,5.813 2.54,1.141 5.19,1.375 7.96,0.73 l 0.49,6.125 c -4.24,0.672 -8.08,0.067 -11.53,-1.828 -3.45,-1.922 -5.95,-4.929 -7.49,-9.004 -1.67,-4.363 -1.61,-8.691 0.19,-12.937 1.79,-4.238 4.9,-7.207 9.34,-8.899 4.02,-1.531 7.5,-1.48 10.43,0.149 2.91,1.629 5.75,3.828 8.49,6.57 l 2.68,2.813 c 0.25,0.273 0.52,0.558 0.81,0.851 0.3,0.305 0.6,0.594 0.92,0.899 1.26,1.14 2.67,2.129 4.23,2.957 1.57,0.8 3.22,0.871 4.97,0.215 2.32,-0.887 3.9,-2.442 4.72,-4.676 0.81,-2.215 0.79,-4.465 -0.05,-6.711 -0.82,-2.149 -1.98,-3.711 -3.44,-4.688 -1.47,-0.957 -3.25,-1.621 -5.32,-1.972 l 1.16,-5.536 c 2.99,0.379 5.6,1.446 7.81,3.204 2.24,1.757 3.9,4.05 4.97,6.882 1.42,3.75 1.51,7.493 0.28,11.211 -1.26,3.731 -3.85,6.352 -7.78,7.844"
         style="fill:currentColor;fill-opacity:1;fill-rule:nonzero;stroke:none"
         transform="matrix(0.13333333,0,0,-0.13333333,0,189.12)" />
      <path
         id="path49"
         d="m 1216.03,544.18 -0.01,0.05 c -0.02,-0.011 -0.03,-0.019 -0.06,-0.019 l 0.07,-0.031"
         style="fill:currentColor;fill-opacity:1;fill-rule:nonzero;stroke:none"
         transform="matrix(0.13333333,0,0,-0.13333333,0,189.12)" />
      <path
         id="path50"
         d="m 1159.23,533.828 48.07,-24.902 2.78,5.351 -48.08,24.922 -2.77,-5.371"
         style="fill:currentColor;fill-opacity:1;fill-rule:nonzero;stroke:none"
         transform="matrix(0.13333333,0,0,-0.13333333,0,189.12)" />
      <path
         id="path51"
         d="m 1169.86,462.375 v 0.027 c -0.03,0 -0.04,0 -0.07,0 l 0.07,-0.027"
         style="fill:currentColor;fill-opacity:1;fill-rule:nonzero;stroke:none"
         transform="matrix(0.13333333,0,0,-0.13333333,0,189.12)" />
      <path
         id="path52"
         d="m 1181.59,489.602 c -3.22,2.168 -6.29,2.82 -9.23,1.98 -2.94,-0.859 -5.87,-2.203 -8.78,-4.062 l -3.09,-1.891 c -0.09,-0.051 -0.17,-0.121 -0.23,-0.16 -0.06,-0.039 -0.14,-0.098 -0.23,-0.145 -2.28,-1.406 -4.55,-2.511 -6.82,-3.32 -2.28,-0.82 -4.69,-0.363 -7.22,1.348 -2.56,1.718 -4.02,4.05 -4.42,7.019 -0.39,2.969 0.23,5.684 1.86,8.117 1.63,2.41 3.8,3.895 6.53,4.414 2.72,0.555 5.37,0.184 7.93,-1.074 l 1.85,5.848 c -3.98,1.633 -7.87,1.906 -11.65,0.82 -3.78,-1.082 -6.9,-3.445 -9.33,-7.051 -2.62,-3.894 -3.54,-8.125 -2.75,-12.656 0.79,-4.531 3.15,-8.113 7.08,-10.762 3.58,-2.41 6.97,-3.144 10.19,-2.226 3.21,0.918 6.47,2.422 9.75,4.472 l 3.25,2.149 c 0.32,0.195 0.65,0.41 1,0.625 0.36,0.234 0.72,0.449 1.08,0.644 1.49,0.86 3.1,1.504 4.8,1.938 1.71,0.437 3.34,0.144 4.9,-0.91 2.06,-1.387 3.23,-3.254 3.52,-5.637 0.3,-2.344 -0.23,-4.519 -1.56,-6.504 -1.28,-1.914 -2.75,-3.164 -4.41,-3.789 -1.65,-0.625 -3.53,-0.859 -5.63,-0.711 l -0.12,-5.676 c 3.01,-0.293 5.78,0.157 8.34,1.368 2.58,1.191 4.71,3.058 6.38,5.566 2.25,3.34 3.19,6.965 2.82,10.879 -0.37,3.898 -2.31,7.031 -5.81,9.387"
         style="fill:currentColor;fill-opacity:1;fill-rule:nonzero;stroke:none"
         transform="matrix(0.13333333,0,0,-0.13333333,0,189.12)" />
      <path
         id="path53"
         d="m 555.117,979.375 c 2.434,0 4.395,1.965 4.395,4.395 0,2.433 -1.961,4.406 -4.395,4.406 -2.426,0 -4.394,-1.973 -4.394,-4.406 0,-2.43 1.968,-4.395 4.394,-4.395"
         style="fill:currentColor;fill-opacity:1;fill-rule:nonzero;stroke:none"
         transform="matrix(0.13333333,0,0,-0.13333333,0,189.12)" />
      <path
         id="path54"
         d="m 1113.05,988.125 c -2.43,0 -4.4,-1.973 -4.4,-4.395 0,-2.429 1.97,-4.394 4.4,-4.394 2.42,0 4.39,1.965 4.39,4.394 0,2.422 -1.97,4.395 -4.39,4.395"
         style="fill:currentColor;fill-opacity:1;fill-rule:nonzero;stroke:none"
         transform="matrix(0.13333333,0,0,-0.13333333,0,189.12)" />
      <path
         id="path55"
         d="m 556.477,433.164 c -2.434,0 -4.399,-1.961 -4.399,-4.394 0,-2.442 1.965,-4.391 4.399,-4.391 2.429,0 4.39,1.949 4.39,4.391 0,2.433 -1.961,4.394 -4.39,4.394"
         style="fill:currentColor;fill-opacity:1;fill-rule:nonzero;stroke:none"
         transform="matrix(0.13333333,0,0,-0.13333333,0,189.12)" />
      <path
         id="path56"
         d="m 1117.44,434.699 c -2.43,0 -4.39,-1.984 -4.39,-4.402 0,-2.434 1.96,-4.387 4.39,-4.387 2.43,0 4.41,1.953 4.41,4.387 0,2.418 -1.98,4.402 -4.41,4.402"
         style="fill:currentColor;fill-opacity:1;fill-rule:nonzero;stroke:none"
         transform="matrix(0.13333333,0,0,-0.13333333,0,189.12)" />
      <path
         id="path57"
         d="m 1070.3,343.172 0.05,21.047 -19.73,0.051 v 52.8 c 90.14,67.285 143.93,174.407 143.93,286.797 0,112.403 -53.82,219.571 -144,286.836 v 36.817 h 13.43 v 5.28 h -13.43 v 34.17 h -5.45 v -21.63 l -65.627,35.85 v 30.47 h -4.278 v -30.73 l -68.422,-31.14 v 37.72 h 6.247 v 19.36 h -10.493 c -7.246,15.54 -23.839,27.26 -44.64,32.41 228.493,-11.57 410.823,-201.124 410.823,-432.452 0,-152.344 -79.15,-286.465 -198.41,-363.656 z m -5.23,0.269 h -45.78 v 15.539 h 45.78 z m -92.09,-47.203 c 5.981,6.641 19.125,21.282 20.344,23 3.301,4.653 4.481,12.032 -2.101,18.934 h 71.287 c -27.9,-17.231 -57.92,-31.332 -89.53,-41.934 z m -4.152,21.434 c -2.551,2.058 -5.531,3.156 -8.672,3.367 l 16.27,17.133 h 5.23 c 1.75,-0.5 3.735,-1.531 5.731,-3.621 5.191,-5.391 3.273,-9.992 1.652,-12.242 -0.703,-1 -7.434,-8.571 -14.234,-16.161 -0.242,4.461 -2.395,8.653 -5.977,11.524 z m -3.031,-21.113 c -3.234,-3.368 -8.043,-5.539 -12.238,-5.539 -5.821,0 -14.5,3.191 -22.899,6.281 -2.316,0.847 -4.574,1.66 -6.797,2.418 l 14.692,15.929 c 0.609,0.653 5.933,6.582 5.687,12.352 -0.086,2.211 -1,4.191 -2.625,5.648 -1.812,1.672 -3.746,3.204 -5.586,4.524 h 33.399 l -18.41,-19.613 c -1.825,-1.329 -3.29,-3.129 -4.106,-5.297 -0.426,-1.121 -0.644,-2.274 -0.703,-3.41 1.769,0.16 3.516,0.128 5.277,0.058 0.055,0.5 0.168,1.012 0.352,1.512 0.832,2.199 2.851,3.797 5.371,4.269 3.039,0.508 5.957,-0.222 8.332,-2.121 2.418,-1.949 3.937,-4.898 4.047,-7.898 0.14,-4.133 -1.973,-7.242 -3.793,-9.113 z M 837.938,273.871 c 6.117,9.289 14.109,21.367 16.292,24.5 6.379,2.379 25.051,3.25 28.422,3.328 16.024,0.34 26.532,-2.508 36.133,-5.789 l 1.985,-0.672 c 2.605,-0.886 5.324,-1.879 8.074,-2.886 4.98,-1.821 10.027,-3.672 14.715,-4.954 -33.801,-8.687 -69.188,-13.359 -105.621,-13.527 z m -3.797,3.82 c -14.809,26.348 -14.938,26.418 -16.961,26.469 -2.934,0.418 -5.797,0.77 -8.575,1.09 v 9.191 h 12.465 l 0.086,5.028 h -12.551 v 18.703 h 56.551 c -3.496,-3.242 -7.695,-7.133 -8.511,-8.043 -4.465,-4.949 -4.598,-10.438 -0.352,-14.719 2.852,-2.832 7.191,-7.07 10.301,-10.082 -4.231,-0.469 -8.84,-1.078 -13.821,-1.887 -1.625,0 -1.742,-0.05 -18.632,-25.75 z m -105.571,9.547 c 4.848,1.282 10.106,3.203 15.293,5.102 2.758,1.019 5.485,2.012 8.106,2.898 l 1.972,0.672 c 9.594,3.27 17.145,5.781 33.129,5.461 6.825,-0.172 17.325,-0.711 28.836,-2.351 2.067,-3.411 9.117,-15.86 14.305,-25.079 -35.02,0.45 -69.074,4.981 -101.641,13.297 z m -21.636,9.321 c -1.829,1.871 -3.95,4.98 -3.797,9.113 0.109,3 1.625,5.949 4.047,7.898 2.386,1.91 5.367,2.629 8.328,2.121 2.535,-0.453 4.539,-2.07 5.379,-4.269 0.168,-0.442 0.269,-0.902 0.324,-1.363 1.777,-0.118 3.543,-0.137 5.312,-0.278 -0.058,1.18 -0.289,2.348 -0.714,3.481 -0.825,2.168 -2.274,3.968 -4.098,5.316 l -18.176,19.594 h 44.52 l -11.145,-10.352 3.582,-3.871 15.305,14.223 h 0.414 V 302.23 c -1.309,-0.429 -2.617,-0.878 -3.973,-1.339 l -1.965,-0.672 c -2.644,-0.891 -5.429,-1.899 -8.226,-2.918 -8.395,-3.09 -17.067,-6.281 -22.879,-6.281 -4.207,0 -9.012,2.171 -12.238,5.539 z m -9.02,9.589 c -6.809,7.602 -13.535,15.18 -14.238,16.161 -1.602,2.25 -3.531,6.851 1.652,12.242 2,2.097 4.024,3.129 5.777,3.621 h 5.172 l 16.289,-17.133 c -3.128,-0.219 -6.128,-1.309 -8.671,-3.379 -3.586,-2.859 -5.731,-7.051 -5.981,-11.512 z m -89.035,32.024 h 72.605 c -6.55,-6.91 -5.379,-14.281 -2.086,-18.934 1.27,-1.758 15.293,-17.379 20.934,-23.648 -32.324,10.672 -62.988,25 -91.453,42.582 z m -3.043,20.879 45.867,-0.071 -0.031,-15.539 h -45.758 z m -50.188,366.008 -0.066,-65.957 H 524.59 v 65.902 z m 43.344,125.898 c 6.09,8.32 12.313,15.109 18.199,20.039 v -55.699 c -5.125,13.738 -11.949,25.359 -18.199,35.66 z m -0.472,-86.258 c 0,0 0.074,0.567 0.156,1.531 0.64,10.04 8.082,25.489 18.515,40.227 V 590.676 H 598.52 Z m -20.606,48.485 c 5.094,12.14 10.992,22.929 17.16,32.168 6.465,-10.68 12.914,-21.856 17.528,-35.489 -7.227,-10.215 -13.27,-20.664 -16.45,-29.746 -3.535,10.461 -9.675,22.442 -18.238,33.067 z M 593.246,764.66 V 590.676 h -32.172 l 0.133,139.969 c 0,28.898 5.031,53.437 14.266,76.289 10.578,-13.926 17.34,-30 17.734,-40.477 -0.027,-0.586 0.039,-1.797 0.039,-1.797 z m 23.945,155.516 v -41.258 c -18.73,-13.605 -44.55,-49.816 -56.117,-98.469 v 62.188 c 0.59,-1.074 1.684,-1.824 2.992,-1.824 1.918,0 3.485,1.562 3.485,3.484 0,1.914 -1.567,3.476 -3.485,3.476 -1.308,0 -2.402,-0.761 -2.992,-1.816 v 8.398 c 0.59,-1.062 1.684,-1.804 2.992,-1.804 1.918,0 3.485,1.551 3.485,3.445 0,1.934 -1.567,3.496 -3.485,3.496 -1.308,0 -2.402,-0.75 -2.992,-1.836 v 8.43 c 0.59,-1.066 1.684,-1.828 2.992,-1.828 1.918,0 3.485,1.574 3.485,3.476 0,1.938 -1.567,3.489 -3.485,3.489 -1.308,0 -2.402,-0.754 -2.992,-1.828 v 3.554 h -1.277 c 1.101,0.586 1.887,1.723 1.887,3.039 0,1.922 -1.555,3.485 -3.481,3.485 -1.918,0 -3.476,-1.563 -3.476,-3.485 0,-1.316 0.781,-2.453 1.878,-3.039 h -1.269 v -3.894 c -0.516,1.258 -1.758,2.168 -3.207,2.168 -1.918,0 -3.481,-1.551 -3.481,-3.489 0,-1.902 1.563,-3.476 3.481,-3.476 1.449,0 2.691,0.91 3.207,2.168 v -9.11 c -0.516,1.278 -1.758,2.176 -3.207,2.176 -1.918,0 -3.481,-1.562 -3.481,-3.496 0,-1.894 1.563,-3.445 3.481,-3.445 1.449,0 2.691,0.887 3.207,2.148 v -9.113 c -0.516,1.281 -1.758,2.187 -3.207,2.187 -1.918,0 -3.481,-1.562 -3.481,-3.476 0,-1.922 1.563,-3.484 3.481,-3.484 1.449,0 2.691,0.898 3.207,2.156 0,0 0.059,-105.02 0.039,-112.461 l -30.57,0.097 v 34.055 c 0.586,-1.074 1.687,-1.828 3,-1.828 1.918,0 3.48,1.547 3.48,3.477 0,1.914 -1.562,3.468 -3.48,3.468 -1.313,0 -2.414,-0.742 -3,-1.828 v 8.438 c 0.586,-1.074 1.687,-1.836 3,-1.836 1.918,0 3.48,1.562 3.48,3.476 0,1.926 -1.562,3.489 -3.48,3.489 -1.313,0 -2.414,-0.754 -3,-1.828 v 8.417 c 0.586,-1.082 1.687,-1.824 3,-1.824 1.918,0 3.48,1.551 3.48,3.477 0,1.914 -1.562,3.484 -3.48,3.484 -1.313,0 -2.414,-0.769 -3,-1.836 v 3.555 h -1.282 c 1.11,0.598 1.887,1.719 1.887,3.059 0,1.902 -1.558,3.464 -3.472,3.464 -1.922,0 -3.477,-1.562 -3.477,-3.464 0,-1.34 0.777,-2.461 1.887,-3.059 h -1.282 v -3.895 c -0.519,1.278 -1.753,2.176 -3.207,2.176 -1.918,0 -3.476,-1.57 -3.476,-3.484 0,-1.926 1.558,-3.477 3.476,-3.477 1.454,0 2.688,0.907 3.207,2.168 v -9.094 c -0.519,1.25 -1.753,2.161 -3.207,2.161 -1.918,0 -3.476,-1.563 -3.476,-3.489 0,-1.914 1.558,-3.476 3.476,-3.476 1.454,0 2.688,0.898 3.207,2.148 v -9.082 c -0.519,1.27 -1.753,2.16 -3.207,2.16 -1.918,0 -3.476,-1.554 -3.476,-3.468 0,-1.93 1.558,-3.477 3.476,-3.477 1.454,0 2.688,0.891 3.207,2.16 V 729.25 l -24.304,-22.559 3.906,-4.187 20.57,19.656 v -63.058 h -31.879 c -1.855,14.718 -2.882,29.652 -2.882,44.765 0,108.008 48.343,208.078 132.714,275.43 v -53.836 h -14.632 v -5.285 z M 602.949,501.66 c 2.356,4.024 2.278,9.414 -0.183,13.711 -2.688,4.688 -7.664,7.383 -13.68,7.383 -4.063,0 -7.539,-0.801 -10.523,-2.207 1.82,10.891 -0.735,24.141 -8.141,29.406 -4.231,3.016 -9.149,4.16 -13.527,3.055 -3.774,-0.918 -6.762,-3.36 -8.665,-7.051 -2,-3.973 -1.878,-8.453 0.34,-12.039 2.11,-3.41 5.828,-5.422 9.989,-5.422 h 0.156 l -0.063,5.274 c -2.246,0.226 -4.433,1.015 -5.609,2.91 -1.242,1.992 -1.273,4.574 -0.117,6.855 1.199,2.344 2.953,3.809 5.219,4.356 2.847,0.703 6.293,-0.157 9.234,-2.235 6.883,-4.894 8.742,-23.019 3.305,-32.316 -0.02,-0.02 -2.969,-5.184 -2.969,-13.145 0,-4.726 4.652,-22.332 25.223,-22.519 h 0.277 c 7.68,0 14.629,2.883 20.098,8.301 1.488,1.476 2.761,3.07 3.878,4.699 V 428.438 C 545.543,485.645 500.129,564.57 488.008,653.828 h 1.254 c 0.351,-0.301 35.449,-29.617 38.301,-32.207 2.425,-2.207 5.187,-4.676 5.25,-12.566 0.023,-3.703 -1.801,-6.321 -3.333,-7.864 -2.988,-3.015 -7.042,-3.777 -9.73,-3.777 -2.695,0 -10.207,1.024 -10.457,8.406 -0.09,2.618 1.055,4.825 2.301,6.075 0.988,0.968 2.39,1.347 4.144,1.339 3.317,-0.168 4.223,-3.808 4.223,-4.531 l 5.269,-0.109 c 0.063,3.84 -2.894,9.621 -9.273,9.883 -3.227,0.097 -6.047,-0.848 -8.059,-2.848 -2.328,-2.328 -3.996,-5.852 -3.859,-10 0.336,-10.258 9.984,-13.5 15.711,-13.5 4.605,0 9.898,1.769 13.473,5.351 3.215,3.223 4.886,7.247 4.859,11.622 -0.078,9.406 -3.504,13.273 -6.984,16.425 -2.235,2.032 -22.907,19.7 -32.989,28.301 h 57.473 l -0.059,-63.152 H 539.91 v -5.285 h 77.281 v -63.868 l -43.769,47.922 H 539.91 v -5.265 h 31.18 l 46.101,-50.469 v -4.168 c 0.485,-9.043 -3.046,-15.324 -7.578,-19.836 -3.125,-3.086 -8.496,-6.766 -16.398,-6.766 -0.07,0 -0.152,0.02 -0.231,0.02 -18.511,0.144 -20.011,17.176 -20.011,17.324 -0.043,3.231 0.429,9.207 4.273,13.106 2.664,2.722 6.649,4.101 11.84,4.101 5.578,0 8.105,-2.969 9.117,-4.738 1.543,-2.695 1.625,-6.016 0.203,-8.426 -1.297,-2.168 -3.863,-3.301 -6.707,-3.281 l -0.066,-5.274 c 5.14,-0.05 9.051,2.04 11.316,5.887 z M 402.676,706.828 c 0,229.637 179.691,417.992 405.859,432.072 -20.14,-5.31 -36.187,-16.85 -43.262,-32.03 h -10.835 v -19.36 h 6.597 v -37.83 l -68.422,31.24 v 30.74 h -4.273 v -30.45 l -66.031,-36.11 v 21.87 h -5.262 l 0.144,-34.17 h -12.937 v -5.28 h 12.937 V 986.113 C 529.504,917.754 479.203,814.902 479.203,703.867 c 0,-111.082 50.277,-213.906 137.988,-282.246 v -57.32 l -16.64,0.019 0.097,-20.879 C 481.633,420.703 402.676,554.68 402.676,706.828 Z m 428.238,416.742 h -9.027 v -5.27 h 9.027 v -11.43 h -59.801 c 9.473,17.2 33.117,29.09 59.801,29.93 z M 966.445,990.09 c -8.027,10.61 -21.351,20.79 -25.668,23.93 v 20.94 h -5.484 v -21.22 c -4.449,-3.15 -17.77,-12.93 -28.52,-23.115 v 36.895 h 13.543 v 5.28 h -13.543 v 11.2 l 59.672,27.15 z m 44.015,-130.195 c 0,-12.922 -3.85,-25.266 -11.089,-35.879 -2.398,-0.774 -6.094,-1.543 -8.933,-0.594 -16.333,5.476 -12.407,25.269 -10.52,34.781 l 0.355,1.856 c 1.473,7.871 -1.332,18.027 -6.976,25.265 -3.824,4.91 -8.531,7.754 -13.281,8.035 -11.731,0.735 -16.524,-3.875 -20.383,-7.578 l -0.477,-0.449 c -3.215,3.957 -10.156,11.27 -24.133,5.488 -13.128,-5.41 -14.503,-25.164 -13.945,-31.66 0.215,-2.613 -0.926,-4.461 -2.523,-6.972 -1.762,-2.813 -3.961,-6.297 -4.153,-11.602 -0.203,-5.059 2.512,-9.59 4.899,-13.582 2.344,-3.879 3.785,-6.535 2.785,-8.02 -1.773,-2.566 -3.691,-2.734 -6.832,-2.207 -7.836,9.77 -12.34,25.422 -12.34,43.118 0,35.164 28.613,63.769 63.77,63.769 35.168,0 63.776,-28.605 63.776,-63.769 z m -29.187,65.566 h -9.14 v 148.259 l 5.469,2.51 3.671,-2.01 z m 63.997,-5.285 v -6.453 c -8.82,-4.864 -23.66,-9.375 -42.96,-13.118 -5.865,8 -13.369,14.727 -22.08,19.571 z m 0,112.624 h -12.24 v -5.28 h 12.24 v -32.598 c -10.15,9.208 -21.61,15.918 -25.67,18.818 v 21.22 h -5.48 v -20.94 c -4.58,-3.34 -19.393,-14.625 -27.163,-25.942 v 83.032 l 58.313,-31.77 z m 0,-107.339 h -58.2 v 50.262 c 0,10.117 20.16,27.087 29.58,34.027 4.42,-3.17 18.1,-11.527 28.62,-21.625 z m 12.49,-230.969 c -0.05,-6.785 -1.36,-12.637 -2.82,-17.613 -7.63,3.824 -17.99,9.547 -19.93,12.105 -0.79,1.067 0.38,5.45 1.17,8.36 1.51,5.644 3.08,11.476 -0.14,15.304 -5.3,6.336 -10.68,7.95 -15.29,8.133 2.48,4.348 3.84,9.297 3.84,14.375 0,16.074 -13.08,29.172 -29.156,29.172 -16.075,0 -29.161,-13.098 -29.161,-29.172 0,-9.375 4.641,-18.191 12.184,-23.633 -1.527,-2.5 -2.797,-5.097 -3.09,-7.175 -0.801,-5.618 -2.137,-15.051 -6.105,-18.528 -1.508,-1.328 -3.25,-2.398 -4.949,-3.496 -0.715,-0.445 -2.516,-1.152 -2.934,-1.875 -0.434,-0.73 0.109,-1.308 0.512,-1.64 0.121,-0.106 0.16,-0.137 0.16,-0.145 0.336,-0.285 0.969,-0.812 1.996,-1.309 6.066,-3.371 19.898,-7.082 31.965,-7.609 -0.703,-3.308 -2.051,-8.543 -4.703,-16.777 -6.469,-19.989 -17.809,-39.473 -26.266,-51.043 -8.52,-11.672 -14.551,-16.922 -20.938,-22.473 l -2.457,-2.129 c -7.511,-6.609 -12.625,-11.609 -21.914,-21.414 -3.898,-4.133 -6.886,-9.191 -9.785,-14.062 -3.902,-6.621 -7.621,-12.864 -13.148,-16.164 -17.598,-10.508 -22.531,-25.235 -23.906,-31.856 -3.5,3.703 -8.547,9.219 -11.875,13.731 -4.809,6.515 -4.68,25.714 -2.071,41.3 1.281,7.645 2.168,15.985 3.063,25.293 8.949,4.618 14.574,20.313 18.515,33.848 2.692,9.172 10.563,20.672 15.133,23.641 5.688,3.691 19.278,19.367 27.156,30.371 7.012,9.777 12.043,25.695 13.477,30.566 7.711,-0.43 16.75,0.82 23.742,7.5 4.887,4.649 6.75,8.711 5.695,12.383 -1.292,4.531 -6.769,7.656 -17.269,9.816 -2.719,0.567 -4.793,1.121 -6.496,1.629 1.211,0.489 2.476,0.996 3.871,1.535 5.449,2.403 7.734,2.723 11.043,2.567 l 0.246,5.273 c -4.621,0.215 -7.699,-0.508 -13.297,-2.984 -6.621,-2.524 -11.449,-4.797 -12.105,-5.082 -0.879,-0.235 -1.782,-0.586 -2.891,-1.055 -4.184,-1.805 -11.492,-4.871 -25.785,-2.558 5.558,6.593 14.769,17.089 18.437,19.472 3.989,2.598 18.11,6.895 26.539,9.492 3.063,0.938 5.665,1.731 7.309,2.286 7.012,2.363 17.633,10.781 21.84,17.324 3.187,4.941 16.094,12.316 25.428,13.371 6.17,0.711 9.54,-0.461 10.85,-1.094 4.8,-18.312 16.91,-31.965 22.47,-38.242 1.09,-1.223 2.3,-2.59 2.53,-3 l 0.79,-1.309 c 15.4,-25.742 18.57,-38.914 18.52,-45.41 z m 11.41,73.477 h 0.05 V 631.301 c -0.6,0.828 -1.2,1.679 -1.84,2.547 -5.08,7.011 -11.4,15.742 -11.43,27.863 -0.01,1.277 0.87,3.836 1.87,6.824 2.04,5.938 5.11,15 5.2,25.91 0.07,8.368 -4.17,20.547 -12.47,36.133 v 80.086 c 10.8,-15.039 18.62,-32.09 18.62,-42.695 z m 0.3,86.152 c -6.55,-10.762 -13.75,-22.976 -18.92,-37.598 v 58.243 c 6.1,-4.989 12.58,-11.981 18.92,-20.645 z m 43.86,-125.801 h 30.73 v -69.218 h -30.66 z m -20.34,81.778 c 8.62,-22.539 14.87,-49.102 14.64,-78.172 l 0.14,-141.25 h -33.28 c 0,0 0,166.504 0,177.254 0,10.754 7.92,28.242 18.5,42.168 z m -21.16,-26.7 c -3.18,9.075 -8.74,19.415 -15.97,29.649 4.61,13.625 11.07,24.797 17.53,35.469 6.17,-9.227 12.07,-20.02 17.16,-32.168 -8.56,-10.614 -15.18,-22.489 -18.72,-32.95 z m -21.21,-292.332 c 1.17,-1.769 2.55,-3.488 4.17,-5.089 5.47,-5.418 12.42,-8.301 20.1,-8.301 h 0.27 c 20.57,0.187 25.13,17.812 25.22,22.531 0.04,2.59 -0.21,5.731 -1.16,8.867 0,0 -1.78,4.246 -1.81,4.266 -5.44,9.297 -3.57,27.422 3.32,32.316 2.93,2.078 6.36,2.938 9.23,2.235 2.27,-0.547 4.01,-2.012 5.21,-4.356 1.17,-2.281 1.12,-4.863 -0.12,-6.855 -1.16,-1.895 -3.23,-3.25 -5.6,-2.91 l -0.07,-5.274 h 0.16 c 4.16,0 7.88,2.012 9.99,5.422 2.22,3.586 2.35,8.066 0.33,12.004 -1.89,3.726 -4.88,6.168 -8.65,7.086 -4.37,1.105 -9.31,-0.039 -13.53,-3.055 -7.41,-5.265 -9.96,-18.515 -8.14,-29.406 -2.99,1.406 -6.46,2.207 -10.54,2.207 -5.99,0 -10.98,-2.695 -13.67,-7.383 -2.46,-4.297 -2.54,-9.687 -0.18,-13.711 2.24,-3.808 6.18,-5.887 11.12,-5.887 h 0.2 l -0.07,5.274 c -3.31,-0.039 -5.42,1.113 -6.7,3.281 -1.42,2.41 -1.35,5.731 0.2,8.426 1.01,1.769 3.55,4.738 9.1,4.738 5.19,0 9.19,-1.379 11.86,-4.101 3.84,-3.899 4.31,-9.875 4.26,-13.078 0,-0.176 -1.5,-17.208 -20,-17.352 -0.08,0 -0.16,-0.02 -0.23,-0.02 -7.91,0.02 -13.28,3.68 -16.4,6.766 -5.39,5.352 -7.87,10.922 -7.87,18.242 v 5.762 l 46.08,50.469 h 31.2 v 5.265 h -33.51 l -43.77,-47.922 v 63.868 h 77.28 v 5.285 h -14.43 l -0.06,63.152 60.5,0.098 c -11.27,-8.465 -34.66,-26.367 -36.89,-28.399 -3.5,-3.152 -6.92,-7.031 -6.99,-16.425 -0.03,-4.375 1.65,-8.399 4.86,-11.622 3.57,-3.582 8.86,-5.917 13.47,-5.917 5.72,0 15.46,3.808 15.8,14.066 0.14,4.148 -1.63,7.672 -3.95,10 -2.02,2 -4.75,2.945 -8.07,2.848 -6.36,-0.262 -9.09,-6.043 -9.02,-9.883 l 5.27,0.109 c -0.01,0.723 0.67,4.363 3.97,4.531 1.72,0 3.17,-0.371 4.14,-1.339 1.25,-1.25 2.48,-3.457 2.41,-6.075 -0.26,-7.382 -7.85,-8.984 -10.55,-8.984 -2.69,0 -6.74,1.34 -9.73,4.336 -1.54,1.562 -3.37,4.18 -3.33,7.883 0.05,7.89 2.81,10.359 5.25,12.566 2.53,2.317 42.78,32.227 42.78,32.227 h 2.33 c -13.14,-90.594 -61.51,-173.926 -135.04,-230.157 z m 18.6,118.016 v -18.406 h -18.6 v 13.078 c 4.42,0.172 13.04,1.141 18.6,5.328 z m -46.96,65.051 c 7.58,2.762 13.11,5.937 14.57,6.805 5.38,-3.497 12.65,-7.235 16.52,-9.149 -0.16,-0.508 -0.34,-1.094 -0.51,-1.574 -1.26,-3.68 -2.17,-6.367 -2.17,-8.516 0.05,-13.828 6.93,-23.308 12.46,-30.937 3.26,-4.508 6.09,-8.387 6.09,-11.543 0,-2.071 -0.73,-3.809 -2.21,-5.242 -3.79,-3.672 -11.61,-4.766 -16.39,-4.954 v 1.055 c -0.67,13.742 -4.79,35.344 -28.36,64.055 z M 996.625,348.609 c 1.703,3.211 1.715,6.821 0.035,10.77 -2.187,5.152 -4.515,9.121 -6.566,12.621 -0.59,1.02 -1.129,1.961 -1.649,2.859 h 37.765 l 0.05,-10.558 h -12.25 v -20.86 h -22.533 c 2.007,1.258 3.949,2.93 5.148,5.168 z m -114.266,-5.168 c 4.395,2.68 9.813,5.981 13.481,8.149 5.691,3.371 10.273,5.39 13.64,6.031 0.688,0.129 16.844,3.109 17.977,12.539 0.176,1.481 0.102,2.942 -0.098,4.36 h 35.786 c 0,-0.872 0.015,-1.77 0.015,-2.579 0.008,-3.621 0.02,-6.742 0.223,-8.832 0.152,-1.488 0.062,-3.648 -0.043,-5.929 -0.227,-5.258 -0.445,-10.68 1.781,-13.739 z m 6.817,-28.769 c 6,6.879 3.679,12.148 0.66,15.367 -2.398,2.531 -6.398,5.621 -9.879,8.133 h 40.672 l -5.461,-5.242 c -0.328,-0.34 -3.277,-3.571 -2.957,-7.559 0.125,-1.5 0.781,-3.75 3.269,-5.633 5.008,-3.898 6.625,-5.199 6.661,-5.218 l 3.328,4.082 c 0,0 -1.606,1.32 -6.774,5.296 -1.035,0.793 -1.195,1.454 -1.238,1.883 -0.117,1.41 1.117,3.09 1.445,3.457 l 8.641,8.25 c 2.355,-1.418 6.816,-4.297 10.523,-7.679 0.457,-0.45 1.891,-1.758 -0.113,-5.84 -1.293,-2.578 -3.23,-4.731 -3.262,-4.758 L 918.418,301.59 c -9.176,3.101 -17.195,5.441 -32.906,5.031 -1.664,-0.043 -3.602,-0.101 -5.739,-0.23 3.797,3.148 8.18,6.871 9.403,8.281 z m -17.184,22.617 C 875.309,335.07 882.641,330 886,326.422 c 2.398,-2.551 2.18,-4.883 -0.797,-8.301 -1.215,-1.383 -7.93,-7 -12.883,-11.051 -2.867,2.809 -8.761,8.539 -12.297,12.071 -0.89,0.89 -3.253,3.257 0.543,7.461 0.789,0.886 6.899,6.558 11.426,10.687 z m -213.844,202.918 9.743,-70.215 -15.188,-7.746 -16.015,70.195 z m -23.386,119.981 c -0.067,2.488 1.258,8.386 2.422,13.582 1.285,5.722 2.496,11.113 2.586,14.406 0.039,1.629 0.269,3.465 0.527,5.508 0.75,6.043 1.66,13.543 -0.731,21.746 -1.699,5.851 -4.988,21.711 -4.785,31.906 0.137,7.461 2.074,23.066 2.074,23.066 3.825,-0.254 14.711,-1.398 19.208,-3.523 4.73,-2.27 10.621,-9.457 16.144,-19.731 5.336,-9.929 0.727,-28.007 -0.805,-33.339 -3.074,-10.633 1.27,-20.977 4.821,-27.801 0.855,-1.711 1.82,-3.254 2.769,-4.797 3.102,-4.957 5.778,-9.238 4.598,-17.285 -1.383,-9.375 -0.625,-13.692 1.207,-24.082 0.539,-3.067 1.172,-6.66 1.883,-11.114 2.937,-18.671 -2.864,-30.156 -7.102,-38.535 -0.066,-0.136 -0.144,-0.293 -0.215,-0.429 -0.562,6.007 -2.8,11.543 -7.152,14.218 -6.547,3.028 -12.606,2.832 -16.844,-0.254 -1.465,4.747 -0.324,9.758 0.793,14.61 1.395,6.066 2.84,12.344 -1.594,17.109 -1.32,1.418 -3.003,2.5 -4.777,3.633 -1.758,1.145 -11.074,6.914 -12.738,11.895 -1.246,2.777 -2.196,5.949 -2.289,9.211 z m 27.097,234.949 c -4.039,-6.758 -6.976,-14.239 -8.515,-22.266 -17.289,3.438 -25.547,7.238 -30.727,10.254 v 23.84 c 9.063,-4.426 22.231,-8.391 39.242,-11.828 z m 33.821,30.324 h -9.157 v 148.749 l 3.676,2.02 5.481,-2.51 z m 25.441,-1.797 c 35.156,0 63.774,-28.605 63.774,-63.769 0,-19.856 -9.407,-38.672 -25.184,-50.704 l -20.586,11.2 c 1.348,1.191 3.723,2.98 3.723,2.98 0.203,-0.051 0.519,-0.168 0.953,-0.293 4.109,-1.308 15.062,-4.777 21.597,1.934 5.438,5.574 4.622,11.922 4.016,16.535 -0.344,2.723 -0.644,5.066 0.234,6.558 2.184,3.653 3.5,9.954 1.797,14.915 -0.961,2.832 -2.816,4.851 -5.371,5.847 -2.781,1.094 -3.5,1.985 -4.504,3.184 -0.629,0.781 -1.281,1.554 -2.273,2.355 -0.551,0.469 -1.5,2.801 -2.125,4.364 -1.469,3.652 -3.133,7.785 -6.359,9.425 -3.547,1.758 -7.098,0.301 -9.684,-0.793 -0.918,-0.379 -2.285,-0.957 -2.422,-0.996 -0.23,0.176 -0.699,0.86 -1.047,1.367 -1.523,2.247 -4.137,6.243 -10.293,5.762 -3.949,-0.176 -6.344,-2.09 -8.449,-3.789 -1.004,-0.808 -1.953,-1.551 -3.012,-2.09 -1.14,-0.566 -4.418,-0.781 -7.051,-0.937 -4.808,-0.313 -9.343,-0.606 -11.781,-2.703 -3.269,-2.805 -4.551,-7.481 -5.59,-11.231 -0.371,-1.328 -0.679,-2.519 -1.058,-3.34 -0.629,-1.34 -2.004,-2.148 -3.571,-3.097 -2.175,-1.297 -5.156,-3.075 -5.347,-6.903 -0.238,-4.406 4.512,-7.355 9.117,-10.195 2.234,-1.379 6.449,-4.699 6.449,-4.699 3.824,-3.809 5.578,-5.535 4.434,-12.567 -0.711,-4.367 -3.727,-4.855 -8.254,-5.097 -1.258,-0.071 -15.027,-1.535 -21.184,-5.52 -0.351,-0.215 -0.797,-0.508 -1.172,-0.742 -8.847,11.301 -13.543,24.883 -13.543,39.27 0,35.164 28.614,63.769 63.766,63.769 z m 9.156,86.086 c 4.703,-3.37 30.25,-22.492 30.758,-31.937 v -52.352 h -18.414 c -6.769,2.234 -13.988,3.465 -21.5,3.465 -6.867,0 -13.488,-1.035 -19.75,-2.91 v 49.855 c 1.309,10.664 20.469,27.669 28.906,33.879 z m 30.758,23.05 h -13.547 v -5.28 h 13.547 v -37.559 c -10.25,12.019 -21.492,20.309 -27.828,23.789 v 21.21 h -5.473 v -20.94 c -4.437,-3.25 -18.433,-13.9 -26.363,-24.887 v 82.017 l 59.664,-27.25 z m 63.168,-112.624 c -0.387,-0.586 -0.726,-1.172 -0.996,-1.824 -0.594,-1.387 -0.922,-2.922 -0.922,-4.512 0,-1.594 0.328,-3.117 0.922,-4.504 0.477,-1.113 1.152,-2.117 1.945,-3.047 0,0 2.493,-2.48 4.118,-3.086 -11.196,-5.449 -27.661,-9.988 -46.379,-12.656 -6.231,12.492 -16.078,22.844 -28.227,29.629 z m 9.703,0 c 3.5,0 6.336,-2.832 6.336,-6.336 0,-3.488 -2.836,-6.32 -6.336,-6.34 -3.496,0.02 -6.343,2.852 -6.343,6.34 0,3.504 2.847,6.336 6.343,6.336 z m 9.703,22.433 c 0.008,-0.168 -0.019,-0.304 -0.011,-0.468 0.449,-6.145 4.992,-10.586 11.898,-10.586 h 0.145 c 3.738,0.027 7.191,1.562 9.742,4.324 2.629,2.832 3.976,6.699 3.715,10.586 -0.559,7.48 -6.114,13.34 -13.614,15.058 h 0.121 c 0,9.981 -7.503,18.098 -16.714,18.098 v -5.266 c 6.152,0 11.148,-5.468 11.398,-12.312 -7.285,-0.227 -13.176,-3.977 -16.379,-9.746 -3.191,5.808 -9.086,9.551 -16.387,9.785 0.254,6.836 5.235,12.305 11.387,12.305 v 5.273 c -9.207,0 -16.699,-8.125 -16.699,-18.105 h 0.187 c -7.503,-1.719 -13.125,-7.559 -13.671,-15.059 -0.282,-3.859 1.058,-7.726 3.691,-10.566 2.543,-2.754 6.004,-4.297 9.762,-4.348 h 0.144 c 6.879,0 11.586,4.453 12.031,10.606 0.016,0.136 0.008,0.273 0.008,0.421 h -5.261 c 0,-0.019 0.003,-0.031 0.003,-0.05 -0.273,-3.789 -3.632,-5.653 -6.886,-5.692 -2.281,0.008 -4.387,0.957 -5.942,2.625 -1.636,1.778 -2.476,4.192 -2.3,6.633 0.453,6.238 5.859,10.742 12.875,10.742 h 0.128 c 8.418,-0.07 14.29,-6.191 14.29,-14.875 v -16.531 h -49.852 c 3.684,28.504 42.281,89.049 52.172,104.159 9.949,-15.44 49.496,-78.046 53.344,-104.159 h -50.395 v 16.504 0 c 0,8.672 5.871,14.773 14.281,14.851 h 0.137 c 6.918,0 12.438,-4.597 12.883,-10.742 0.18,-2.422 -0.672,-4.844 -2.32,-6.609 -1.547,-1.692 -3.661,-2.629 -5.934,-2.649 h -0.082 c -3.492,0 -6.383,1.946 -6.649,5.684 0,0.051 0,0.078 0,0.109 z m 34.086,-81.808 c -15.843,2.961 -30.132,7.238 -43.41,13.176 l -0.023,0.07 c -0.157,-0.024 -0.309,-0.043 -0.485,-0.043 -0.148,0 -0.281,0.019 -0.414,0.043 l -0.019,-0.07 c -11.481,-5.137 -26.352,-9.543 -43.25,-12.786 -0.156,8.614 -1.906,16.836 -4.942,24.387 20.18,2.996 37.153,7.996 48.754,14.266 11.602,-6.27 28.574,-11.27 48.75,-14.266 -3.086,-7.668 -4.84,-16.015 -4.961,-24.777 z m 7.481,-43.875 c -5.719,-2.61 -4.348,-10.41 -3.305,-14.129 -4.863,-3.715 -19.269,-15.668 -20.402,-27.856 -2.563,-27.285 -16.629,-45.488 -23.711,-51.308 -6.035,-4.961 -10.945,-16.602 -10.086,-23.953 0.402,-3.528 1.492,-6.907 3.004,-10.11 l -0.5,0.383 c -1.078,-1.398 -2.172,-3.887 -3.149,-6.887 -1.531,2.141 -3.558,4.532 -6.011,6.368 l -14.45,61.523 -6.019,-1.465 c -3.813,4.922 -17.848,23.117 -20.527,27.317 -1.165,1.824 -1.512,4.343 -1.86,6.765 -0.504,3.555 -1.019,7.239 -4.015,9.492 -2.442,1.836 -6.684,9.414 -8.875,13.926 14.566,12.168 23.507,29.875 24.64,48.809 17.016,3.183 32.102,7.558 43.973,12.668 13.476,-5.832 27.894,-10.129 43.914,-13.028 0.625,-14.836 4.281,-28.156 10.402,-37.824 -1.027,-0.078 -2.039,-0.242 -3.023,-0.691 z m 65.765,59.16 c 3.45,-2.121 5.946,-7.063 7.414,-11.516 -7.734,1.282 -15.71,-1.425 -17.441,-2.273 l 2.305,-4.727 c 1.222,0.594 9.394,3.407 16.152,1.414 0,0 0.391,-0.332 0.43,-0.75 0.531,-6.054 1.562,-20.976 -0.438,-28.507 -0.418,-1.563 -0.562,-3.18 -0.578,-4.786 -3.836,0.286 -6.816,1.985 -9.902,3.879 -3.445,2.118 -6.996,4.297 -11.488,3.758 -3.774,-0.457 -6.34,-2.312 -8.59,-3.965 -2.418,-1.738 -4.348,-2.988 -7.422,-2.832 -0.145,0.442 -0.289,0.957 -0.426,1.328 v 0 c -0.012,0.032 -0.019,0.063 -0.035,0.098 -0.039,0.098 -0.078,0.207 -0.121,0.293 -0.113,0.332 -0.219,0.676 -0.348,0.922 -1.098,2.078 -3.48,8.23 -3.848,13.824 -0.203,2.922 0.415,10.996 0.989,16.692 l 0.035,-0.051 c 0.008,0.019 1.473,0.89 5.269,0.89 3.114,0 6.493,0.118 7.918,-1.808 0.418,-0.555 1.227,-2.578 0.844,-4.481 -1.41,-7.14 -3.437,-14.336 -4.41,-16.152 0,0 4.582,-0.148 5.637,-0.195 0.414,1.484 3.773,14.695 3.816,14.812 1.149,3.82 0.34,7.277 -0.824,8.828 -2.77,3.731 -8.875,4.27 -12.981,4.27 -1.914,0 -3.41,-0.188 -4.617,-0.442 0.004,0.032 0.012,0.09 0.024,0.137 0.734,3.555 2.004,7.734 7.695,12.258 5.195,4.109 17.531,3.66 24.941,-0.918 z M 922.504,820.5 c 4.18,0.184 7.004,2.195 9.359,3.914 1.992,1.438 3.723,2.695 6.157,2.988 2.664,0.332 5.089,-1.152 8.136,-3.015 3.407,-2.09 7.594,-4.602 13.168,-4.746 0.246,-1.028 0.547,-2.024 0.93,-2.989 0.016,0 0.035,0 0.062,0 0.454,-1.777 1.168,-4.875 1.481,-7.961 0.332,-3.32 -1.606,-10.546 -3.492,-17.546 -0.653,-2.442 -1.313,-4.915 -1.922,-7.336 -2.199,-8.77 -8.75,-16.063 -14.094,-18.731 -4.578,-2.305 -13.047,-2.812 -20.574,-1.277 -4.063,0.84 -4.563,3.875 -4.801,7.793 -0.035,0.554 -0.066,1.043 -0.117,1.433 -0.188,1.477 1.504,5.989 2.516,8.692 0.371,0.996 0.722,1.933 1.015,2.773 1.488,4.27 2.656,14.856 2.793,16.789 0.18,2.469 0.024,13.641 -0.617,19.219 z m -27.293,-97.258 c -9.699,2.637 -48.231,-20.508 -61,-28.418 -0.617,1.789 -1.098,3.606 -1.313,5.449 -0.648,5.567 3.579,15.481 8.211,19.29 0.907,0.75 22.192,18.621 25.594,54.863 0.977,10.359 14.863,21.531 18.742,24.472 2.602,-0.761 6.371,-1.769 11.086,-2.668 1.551,-0.292 2.938,-0.417 4.254,-0.449 0,0.032 0.008,0.09 0.008,0.141 0.848,-0.043 1.785,-0.063 2.785,-0.063 0.348,0 0.703,0 1.051,0.012 4.746,0.086 9.633,1.141 12.898,2 -0.48,-3.894 -1.293,-9.297 -2.121,-11.68 -0.277,-0.8 -0.617,-1.699 -0.972,-2.656 -1.844,-4.922 -3.129,-8.621 -2.813,-11.14 0.039,-0.305 0.063,-0.704 0.09,-1.125 0.199,-3.262 0.66,-10.868 8.957,-12.559 2.871,-0.606 6.402,-0.996 10.047,-0.996 4.867,0 9.937,0.707 13.902,2.707 6.211,3.086 14.121,11.348 16.821,22.117 0.605,2.402 1.257,4.844 1.902,7.246 1.289,4.797 3.176,12.578 3.176,12.578 2.328,0.918 8.089,3.321 13.332,3.301 5.507,-0.008 11.011,-2.324 15.191,-4.609 6.221,-4.657 11.801,-8.301 16.431,-8.457 0.13,-0.692 0.32,-1.328 0.41,-2.02 0.09,-0.762 0.3,-1.465 0.43,-2.199 -2.44,0.559 -5.77,0.918 -10.31,0.402 -10.383,-1.183 -24.969,-8.926 -29.25,-15.754 -8.133,-12.949 -26.602,-17.519 -26.602,-17.519 -4.878,-1.504 -25.761,-8.856 -27.531,-10 -5.234,-3.387 -17.523,-17.996 -21.426,-22.711 -0.683,0.164 -1.269,0.25 -1.98,0.445 z m 29.609,-23.57 c -15.84,3.57 -28.968,-3.547 -39.121,-9.016 -0.98,-0.539 -2.226,-1.152 -3.679,-1.894 -7.684,-3.887 -19.95,-10.11 -28.247,-18.449 -4.089,3.242 -12.543,10.644 -17.394,19.667 20.988,13.028 51.508,29.583 57.508,28.157 21.41,-5.559 31.937,-0.996 37.011,1.191 0.95,0.379 1.836,0.789 2.301,0.848 1.75,0.324 3.031,-0.059 5.871,-0.906 2.039,-0.618 4.629,-1.379 8.332,-2.141 11.051,-2.285 12.969,-5.02 13.282,-6.121 0.433,-1.555 -1.075,-4.082 -4.289,-7.129 -9.618,-9.172 -24.457,-5.832 -31.575,-4.207 z M 762.754,379.551 c 6.996,0.808 11.402,-3.973 14.34,-7.153 1.066,-1.128 1.906,-2.039 2.773,-2.589 1.168,-0.739 2.887,-1.469 4.774,-2.27 6.129,-2.559 10.734,-4.859 9.714,-9.16 -0.656,-2.731 -11.167,-2.359 -15.156,-2.188 -1.394,0.039 -2.672,0.079 -3.73,0.098 -2.559,0 -5.574,3.691 -8.239,6.922 -2.187,2.68 -4.25,5.219 -6.609,6.641 -1.48,0.886 -3.242,3.32 -5.238,7.218 1.039,0.871 3.164,1.969 7.371,2.481 z m -30.953,2.84 c 0.047,0.3 4.594,28.359 6.539,50.031 1.508,16.855 0.101,26.426 -2.012,40.879 -0.687,4.648 -1.449,9.863 -2.234,16.035 -3.504,27.695 10.004,54.863 12.746,60.019 4.66,8.782 11.894,25.372 14.281,30.918 0.016,-0.007 0.035,-0.007 0.051,-0.007 0.016,0.097 0.027,0.164 0.043,0.222 0.387,0.918 0.648,1.524 0.711,1.641 l -0.031,0.019 c 3.886,5.743 6.699,13.321 8.984,20.743 1.394,4.562 2.988,9.14 4.949,13.476 -1.672,-8.418 -3.488,-20.664 -3.969,-35.769 -0.605,-18.84 1.996,-23.926 3.907,-27.629 1.035,-2.012 1.656,-3.231 1.464,-6.68 -0.25,-4.324 -3.23,-8.633 -6.117,-12.812 -3.765,-5.45 -7.644,-11.063 -6.246,-17.461 0.625,-2.852 1.867,-6.446 3.301,-10.586 3.508,-10.145 8.312,-24.024 5.699,-33.672 -3.746,-13.809 -7.457,-33.047 -3.844,-46.367 2.551,-9.391 4.262,-33.879 4.887,-43.922 -3.234,2.242 -7.406,3.972 -12.777,3.301 -4.559,-0.52 -7.516,-1.758 -9.418,-3.129 -1.297,-0.45 -1.945,-1.313 -2.277,-2.262 -8.735,-8.438 -10.04,-7.949 -14.747,-6.098 l -0.632,0.239 c -3.844,1.492 -3.25,8.871 -3.258,8.871 z m 18.504,368.988 c -10.469,-12.863 -11.434,-20.305 -12.203,-26.27 -0.442,-3.351 -0.789,-6.015 -2.715,-9.23 -1.199,-1.961 -2.082,-3.613 -2.836,-5.106 -0.926,2.95 -1.992,6.426 -3.11,11.082 -1.691,7.051 -0.843,8.497 0.438,10.665 0.926,1.593 2.074,3.546 2.621,7.179 1.172,7.774 -4.465,25.43 -6.387,31.153 27.465,1.98 42.242,10.32 46.645,13.269 0.062,-0.43 0.129,-0.84 0.187,-1.269 0.325,-2.325 0.731,-4.852 1.797,-7.235 -2.855,-1.847 -11.301,-8.125 -24.437,-24.238 z m 7.797,-12.258 21.921,-88.691 15.465,3.925 c 1.254,-1.289 2.614,-2.527 4.055,-3.66 -3.305,-2.707 -17.039,-14.113 -21.887,-20.578 -5.746,-7.703 -9.082,-16.785 -11.316,-25.879 -1.692,-6.855 -5.168,-13.379 -7.735,-17.617 -3.925,8.574 -12.863,27.961 -14.601,30.285 -3.875,5.106 -9.168,12.098 -9.168,16.942 0,3.418 0.594,5.058 1.223,6.781 0.871,2.34 1.761,4.793 0.957,10.184 -0.809,5.496 -2.227,9.101 -3.719,12.91 -0.984,2.48 -1.996,5.047 -2.945,8.406 -1.204,4.258 0.582,9.043 2.324,13.652 1.344,3.606 2.734,7.324 2.734,10.899 0,1.965 -0.211,3.711 -0.531,5.422 h 0.027 c 0,0.027 0,2.839 4.977,11.054 2.515,4.168 2.984,7.793 3.441,11.278 0.707,5.578 1.524,11.914 11.071,23.625 12.679,15.566 20.734,21.504 23.14,23.105 4.301,-6.016 13.145,-17.512 17.41,-23.027 z m 47.503,-49.383 c -1.699,-1.316 -4.597,-4.367 -7.625,-7.715 l -14.25,57.938 18.93,4.621 12.285,-52.355 c -3.226,0.57 -6.429,-0.243 -9.34,-2.489 z m -19.074,-23.722 c 0.207,-0.332 2.074,-3.496 5.039,-7.207 l -7.703,-1.961 -19.394,78.425 14.144,3.457 15.129,-61.511 c -3.414,-3.938 -6.312,-7.434 -6.953,-8.215 l -1.172,-1.395 z m 37.907,-6.914 c -2.653,-2.645 -8.27,-7.598 -12.094,-8.028 -7.797,-0.867 -16.5,10.117 -20.289,16.035 4.511,5.403 13.66,16.036 16.785,18.469 1.808,1.406 3.558,1.902 5.457,1.453 4.879,-1.121 9.375,-8.066 10.933,-11.054 -1.144,-5.782 -1.617,-12.129 -0.792,-16.875 z m -2.418,-110.086 0.66,-3.879 c 2.191,-13.047 3.39,-22.168 0.187,-29.453 -2.137,-4.852 -4.937,-8.418 -7.883,-12.188 -4.597,-5.898 -9.379,-11.98 -11.957,-23.25 -4.019,-17.461 -4.632,-43.398 -1.269,-52.363 1.012,-2.676 2.738,-5.91 4.57,-9.328 0.078,-0.157 0.16,-0.317 0.25,-0.453 0.067,0 0.156,0 0.231,0 0.32,-0.622 0.73,-1.301 1.261,-2.18 2.227,-3.613 5.953,-9.684 4.508,-14.203 -0.691,-2.16 -2.555,-3.867 -5.687,-5.199 -2.606,-1.098 -17.344,-5.27 -27.313,-5.981 -0.855,11.84 -2.383,28.496 -4.476,36.219 -3.477,12.832 0.914,32.832 3.839,43.625 3.047,11.199 -2.054,25.965 -5.793,36.746 10.059,9.328 32.614,37.434 35.114,43.859 1.195,3.075 1.644,6.328 2.25,10.84 0.64,4.707 1.519,11.152 3.726,20.43 2.766,11.738 9.43,17.324 13.086,19.597 0.367,-9.941 -2.304,-15.3 -4.148,-18.847 -0.738,-1.426 -1.344,-2.645 -1.692,-3.75 -2.976,-9.813 -1.425,-18.836 0.536,-30.242 z m 3.168,67.226 c 0.792,-3.195 1.277,-6.008 1.632,-8.644 -3.523,-1.739 -13.898,-8.035 -17.703,-24.129 -2.258,-9.512 -3.16,-16.125 -3.82,-20.918 -0.586,-4.309 -0.977,-7.16 -1.934,-9.649 -1.925,-4.933 -21.547,-29.804 -32.078,-40.254 -0.547,1.688 -0.988,3.204 -1.269,4.493 -0.918,4.168 2.172,8.621 5.418,13.339 3.304,4.774 6.73,9.727 7.054,15.528 0.27,4.871 -0.843,7.051 -2.035,9.375 -1.644,3.172 -3.906,7.566 -3.34,25.047 0.817,25.566 5.305,44.394 6.321,48.39 5.636,6.375 17.918,16.493 20.781,18.836 2.324,-1.172 4.765,-1.902 7.269,-1.902 0.496,0 0.973,0.027 1.461,0.086 4.614,0.539 9.7,4.457 12.961,7.402 1.305,-6.094 0.422,-11.101 -0.523,-16.308 -1.11,-6.094 -2.238,-12.391 -0.195,-20.692 z M 683.176,796.23 c 4.066,-2.07 7.355,-2.183 11.515,-2.324 2.825,-0.097 6.024,-0.195 10.426,-0.898 4.754,-0.75 7.821,-2.891 10.781,-4.922 3.207,-2.234 6.524,-4.551 11.411,-4.551 0.429,0 0.879,0.031 1.336,0.078 9.343,0.762 14.847,7.539 19.281,13 l 1.168,1.434 c 3.687,4.453 11.117,5.363 11.187,5.383 l 0.676,0.097 0.129,0.078 c 1.664,-3.32 6.027,-11.554 9.629,-14.492 -1.977,-1.457 -19.406,-13.429 -56.402,-13.429 -0.309,0 -0.614,0 -0.911,0 -45.004,0.214 -63.214,16.086 -65.886,18.683 7.367,8.399 15.261,14.473 21.289,18.613 l 1.961,-4.355 c 0.234,-0.383 5.836,-9.094 12.41,-12.395 z m 31.961,21.055 c 2.504,-1.601 6.5,-2.762 10.66,-2.762 1.836,0 3.715,0.235 5.504,0.743 0.98,0.281 2.082,0.886 3.234,1.64 l 18.434,-10.031 c -2.715,-1.102 -5.719,-2.801 -7.926,-5.469 l -1.203,-1.484 c -3.996,-4.922 -8.524,-10.488 -15.633,-11.094 -3.812,-0.273 -6.16,1.387 -9.312,3.555 -3.282,2.297 -7.004,4.902 -12.965,5.84 -4.731,0.734 -8.231,0.851 -11.051,0.937 -3.922,0.156 -6.301,0.227 -9.336,1.77 -5.191,2.605 -10.121,10.183 -10.148,10.183 l -2.149,4.785 c 0.465,0.313 0.992,0.665 1.406,0.938 9.965,5.664 22.25,3.711 29.594,8.769 3.547,-2.82 9.016,-7.109 10.891,-8.32 z m -6.051,42.149 c 2.715,4.504 3.187,6.406 3.512,7.636 0.168,0.696 0.199,0.84 0.754,1.504 0.05,0.078 5.707,7.004 12.082,4.805 4.593,-1.59 7.613,-1.492 9.648,-1.453 0.969,0.008 1.656,0.027 2.07,-0.137 1.801,-0.684 2.239,-1.711 3,-3.789 0.645,-1.797 1.45,-4.035 3.727,-5.703 2.176,-1.574 4.441,-2.024 6.273,-2.402 2.442,-0.5 3.254,-0.704 3.817,-2.278 2.515,-7.031 -5.614,-19.492 -8.895,-23.613 -4.398,-5.106 -12.047,-12.734 -15.269,-13.691 -4.512,-1.329 -9.653,0 -11.832,1.425 -1.743,1.094 -7.653,5.754 -11.45,8.789 0.047,0.207 0.137,0.383 0.18,0.618 1.582,9.695 -1.726,12.976 -5.922,17.136 0,0 -0.968,0.86 -1.168,1.055 2.59,1.836 6.504,5.176 9.473,10.098 z m 55.109,-18.555 c 0.555,-4.332 1.086,-8.457 -2.554,-12.188 -3.868,-3.953 -11.286,-2.109 -15.11,-0.957 1.196,1.301 2.121,2.375 2.59,2.911 1.414,1.796 13.762,17.734 9.797,28.73 -1.59,4.445 -5.141,5.156 -7.734,5.676 -1.52,0.312 -2.965,0.605 -4.196,1.512 -0.933,0.683 -1.308,1.621 -1.894,3.214 -0.813,2.254 -1.926,5.332 -6.035,6.942 -1.407,0.527 -2.704,0.488 -4.102,0.469 -1.777,-0.04 -4.098,-0.079 -7.812,1.171 -7.852,2.688 -14.942,-2.812 -17.887,-6.472 -1.192,-1.457 -1.485,-2.364 -1.774,-3.535 -0.238,-0.93 -0.586,-2.356 -2.91,-6.192 -3.203,-5.332 -7.828,-8.496 -9.484,-9.504 -0.57,0.352 -1.125,0.715 -1.692,1.067 -2.347,1.453 -6.71,4.148 -6.636,5.449 0.051,0.887 0.66,1.394 2.785,2.656 1.933,1.152 4.324,2.578 5.633,5.379 0.488,1.027 0.914,2.5 1.383,4.18 0.839,3.058 1.894,6.875 3.945,8.652 1.094,0.93 5.664,1.231 8.68,1.418 3.746,0.242 6.972,0.438 9.074,1.492 1.558,0.781 2.828,1.797 3.933,2.676 1.774,1.445 3.172,2.559 5.399,2.656 3.16,0.227 4.34,-1.445 5.711,-3.476 0.996,-1.446 2.226,-3.27 4.492,-3.524 1.808,-0.215 3.598,0.528 5.34,1.258 2.359,0.988 3.996,1.574 5.316,0.93 1.445,-0.723 2.832,-4.16 3.836,-6.68 1.109,-2.734 2.066,-5.117 3.652,-6.437 0.696,-0.575 1.133,-1.114 1.575,-1.649 1.211,-1.476 2.586,-3.137 6.64,-4.726 1.086,-0.411 1.852,-1.289 2.313,-2.668 1.109,-3.243 0.172,-7.969 -1.336,-10.508 -1.817,-3.028 -1.363,-6.531 -0.938,-9.922 z m -72.32,-211.336 c -0.961,4.461 -1.352,8.145 -1.898,11.199 -1.778,10.098 -2.434,13.887 -1.188,22.403 1.465,9.972 -1.988,15.507 -5.316,20.859 -0.883,1.426 -1.778,2.851 -2.582,4.406 -3.391,6.551 -6.961,15.195 -4.426,23.953 2.144,7.414 6.488,25.918 0.383,37.258 -4.344,8.094 -11.078,18.457 -18.528,22 -5.949,2.824 -18.894,3.879 -20.847,4.043 0.871,4.609 1.961,8.34 3.254,10.059 1.093,1.613 2.253,3.097 3.406,4.582 4.242,-4.043 23.547,-19.641 69.234,-19.903 h 0.953 c 2.184,0 4.278,0.067 6.344,0.145 2.219,-6.375 7.59,-23.75 6.633,-30.078 -0.399,-2.606 -1.152,-3.906 -1.961,-5.281 -1.93,-3.282 -3.035,-6.086 -1.023,-14.559 1.222,-5.09 2.402,-8.852 3.39,-12.004 1.469,-4.68 2.438,-7.785 2.438,-11.945 0,-2.645 -1.164,-5.742 -2.403,-9.043 -1.925,-5.176 -4.125,-11.016 -2.445,-16.942 1.016,-3.605 2.117,-6.418 3.098,-8.906 1.449,-3.66 2.699,-6.836 3.422,-11.758 0.605,-4.043 0.062,-5.547 -0.692,-7.57 -0.695,-1.902 -1.558,-4.266 -1.558,-8.613 0,-6.61 5.671,-14.102 10.242,-20.137 1.39,-1.816 2.722,-3.582 3.597,-4.949 0.336,-0.34 10.02,-22.317 12.106,-26.883 l -0.035,-0.043 c 0,0 0.093,-0.145 0.215,-0.371 0.074,-0.164 0.105,-0.203 0.14,-0.293 -2.762,-6.387 -9.367,-21.406 -13.594,-29.363 -2.578,-4.856 -8.742,-17.629 -11.941,-33.645 -5.641,4.914 -16.48,14.609 -20.816,20.313 -3.27,4.308 -4.25,7.363 -5.61,11.582 -1.015,3.144 -2.285,7.101 -4.875,12.421 -4.66,9.61 -12.312,16.504 -15.851,19.356 -0.246,0.977 -0.508,1.777 -0.844,2.168 0.683,1.301 1.355,2.609 1.98,3.828 1.106,2.188 12.227,20.266 7.598,41.711 z m 36.484,-235.242 c -12.816,1.461 -24.574,7.39 -29.199,10.008 -3.93,2.211 -6.078,6.191 -6.711,7.519 -0.89,5.192 -1.75,12.481 -1.363,21.25 0.191,4.578 0.383,7.899 0.547,10.731 0.297,5.273 0.515,9.082 0.515,16.211 0,4.941 -0.722,7.168 -1.828,10.578 -1.504,4.656 -3.773,11.707 -6.429,32.547 -3.266,25.742 -1.696,47.062 -0.539,62.656 0.16,2.219 0.308,4.258 0.437,6.23 0.082,-0.222 0.176,-0.371 0.254,-0.593 l -0.055,-0.032 c 0.071,-0.117 0.157,-0.301 0.215,-0.429 0.055,-0.145 0.043,1.164 -0.062,2.961 3.339,-3.301 7.382,-8.016 10.168,-13.75 2.421,-4.981 3.578,-8.575 4.597,-11.731 1.399,-4.355 2.602,-8.113 6.422,-13.125 5.438,-7.187 19.711,-19.559 23.949,-23.172 -1.05,-7.441 -1.382,-15.39 -0.355,-23.476 0.785,-6.231 1.551,-11.457 2.246,-16.125 2.145,-14.61 3.437,-23.418 1.977,-39.668 -1.165,-13.028 -3.282,-28.403 -4.786,-38.59 z m -22.543,-13.02 c 0.84,0.188 1.625,0.25 2.309,0.25 0.996,0 2.512,-2.101 2.773,-2.859 2.055,-6.024 1.465,-17.211 0.254,-19.184 -1.214,-1.769 -11.382,-5.66 -15.589,-3.379 -5.372,2.871 -5.45,5.379 -4.833,7.469 1.317,4.313 9.274,16.371 15.086,17.703 z m -15.351,12.328 3.133,-14.179 h -20.907 z m 20.465,-7.308 c -0.504,0.211 -1.024,0.379 -1.512,0.469 -5.922,1.019 -9.902,-2.258 -10.48,-2.489 -0.125,-0.152 -0.293,-0.261 -0.461,-0.359 l -3.774,17.109 c 0.594,-0.441 1.211,-0.871 1.891,-1.261 3.019,-1.711 8.941,-4.739 16.226,-7.211 z m -22.856,18.129 1.02,-4.59 -5.117,-4.078 -9.844,70.976 9.816,5.02 c 0.328,-1.094 0.637,-2.07 0.918,-2.93 1.035,-3.183 1.551,-4.765 1.551,-8.808 0,-6.981 -0.203,-10.516 -0.512,-15.879 -0.16,-2.871 -0.347,-6.211 -0.554,-10.828 -0.606,-13.934 1.722,-24.403 2.722,-28.883 z m -11.613,142.398 c -0.504,-12.707 -0.391,-27.609 1.742,-44.414 1.547,-12.18 2.985,-19.797 4.231,-24.992 l -9.137,-4.668 -9.641,69.453 z m 1.269,32.188 c 0.208,-0.364 0.45,-0.715 0.645,-1.075 -0.121,-3.351 -0.414,-7.304 -0.734,-11.718 -0.305,-4.035 -0.629,-8.438 -0.899,-13.184 l -13.887,-5.031 -2.128,15.312 c 5.507,4.61 12.461,10.703 17.003,15.696 z m -24.707,-1.868 1.672,-12.07 c -0.871,-0.699 -1.746,-1.426 -2.578,-2.09 l -1.547,4.453 c -0.023,0.071 -2.101,5.567 -1.406,11.778 0.305,2.636 1.793,4.894 3.527,7.48 2.106,3.164 4.473,6.75 4.922,11.68 l -0.203,0.012 c 3.68,4.168 9.914,2.039 12.32,0.957 3.274,-2.032 4.95,-8.196 4.485,-14.493 0.078,-0.136 0.187,-0.195 0.262,-0.332 0.148,-0.293 0.312,-0.519 0.461,-0.793 -3.254,-3.808 -9.063,-9.179 -15.051,-14.304 l -1.188,8.515 z m -1.761,22.579 c 0.461,-0.997 0.695,-1.844 0.808,-2.657 -0.664,-2.773 -2.129,-5.086 -3.718,-7.468 -1.93,-2.922 -3.922,-5.899 -4.364,-9.817 -0.843,-7.43 1.614,-13.933 1.68,-14.129 l 2.734,-7.859 4.075,-1.195 c 0.453,0.351 1.554,1.25 3.05,2.453 l 1.817,-13.047 -16.094,-5.832 v 98.605 l 0.141,0.145 c 1.738,-1.805 3.781,-3.145 5.562,-4.278 1.485,-0.945 2.887,-1.843 3.75,-2.761 2.418,-2.629 1.703,-6.407 0.328,-12.364 -1.383,-6.046 -2.972,-12.902 0.231,-19.796 z M 665.719,379.43 H 641.25 v 107.25 z m -11.438,76.929 14.446,7.618 9.906,-71.547 -8.145,-7.571 z m 72.356,-76.57 h -10.606 c -0.047,0.16 -0.48,1.813 -0.722,2.981 l 2.5,8.281 c 3.125,-0.852 6.402,-1.5 9.773,-1.891 -0.562,-3.648 -0.926,-5.969 -0.945,-6.07 -0.02,-0.149 -0.117,-1.512 0,-3.301 z m 185.304,129.215 c 7.868,2.258 14.622,5.625 20.762,9.543 -1.262,-6.008 -2.172,-14.942 0.598,-23.762 6.762,-21.504 3.656,-51.328 2.191,-57.851 -1.156,-5.028 -5.148,-13.504 -6.508,-16.297 -0.339,-0.117 -0.699,-0.305 -1.086,-0.645 -4.007,1.121 -8.464,1.887 -13.39,1.887 -0.637,0 -1.278,0 -1.926,-0.043 -6.266,-0.254 -12.039,-1.336 -17.144,-2.313 -5.883,-1.125 -10.958,-2.043 -15.266,-1.554 -4.938,0.597 -10.031,1.562 -13.215,6.015 -3.777,5.286 -4.277,14.61 -1.504,27.754 6.953,32.95 14.961,48.184 46.488,57.266 z m 26.379,-12.637 c -3.656,11.582 0.121,24.024 1.098,26.875 3.262,2.473 6.379,5.071 9.383,7.727 -1.207,-6.289 -1.781,-14.699 1.574,-21.074 10.719,-20.223 14.953,-42.766 12.258,-65.176 -0.863,-7.149 -4.102,-31.18 -4.988,-37.688 -3.844,0.641 -8.235,3.039 -12.055,5.11 l -1.465,0.808 c -2.891,1.563 -6.43,3.442 -10.551,5.082 1.297,2.672 5.727,11.961 7.047,17.75 1.801,7.93 4.715,38.254 -2.301,60.586 z M 921.926,387.75 c -0.903,1.828 -3.004,11.379 4.269,21.578 1.535,2.152 2.61,3.57 3.356,4.563 4.82,-1.661 8.844,-3.821 12.066,-5.59 l 1.449,-0.762 c 4.629,-2.527 10.364,-5.641 15.766,-5.918 1.09,-2.312 2.731,-6.48 3.512,-12 0.433,-3.043 0.875,-7.402 0.961,-10.769 h -36.668 c -1.008,2.597 -3,5.839 -3.903,7.429 -0.328,0.598 -0.621,1.078 -0.808,1.469 z m -18.567,7.898 c -0.078,1.18 -0.152,2.473 -0.152,3.864 0,4.976 -1.859,11.636 -3.086,15.488 4.035,0.73 8.172,1.391 12.668,1.578 4.121,0.113 7.859,-0.379 11.313,-1.168 -0.657,-0.89 -1.36,-1.871 -2.176,-3.019 -8.742,-12.219 -6.262,-23.871 -4.707,-27 0.23,-0.442 0.547,-1.02 0.933,-1.692 1.743,-3.078 4.645,-8.23 4.078,-12.918 -0.472,-3.992 -9.148,-7.179 -13.695,-8 -4.039,-0.742 -9.066,-2.91 -15.371,-6.652 -4.984,-2.957 -13.191,-7.969 -17.691,-10.738 -0.414,2.148 -0.93,4.961 -1.313,7.769 -0.582,4.199 4.301,9.949 9.207,12.649 3.801,2.07 6.86,5.031 10.156,8.711 h 0.317 v 0.339 c 1,1.141 2.019,2.301 3.094,3.563 l 1.918,2.199 c 5.086,5.809 4.804,10.289 4.507,15.027 z m 122.661,18.473 0.17,-35.199 h -39.795 c -0.813,1.898 -1.34,3.707 -1.407,5.629 -0.187,5.668 6.903,23.258 10.285,31.078 1.899,-0.078 3.965,-0.039 6.397,0.242 4.97,0.609 9.06,2.27 12.26,4.981 2.36,-2.383 6.92,-6.161 12.09,-6.731 z m -17.54,77.266 c 3.18,-14.922 7.51,-47.735 7.57,-48.133 0.02,-0.098 1.49,-9.641 -3.4,-16.133 -2.54,-3.391 -6.44,-5.383 -11.61,-6.027 -4.708,-0.547 -7.97,-0.125 -11.415,0.363 -3.633,0.488 -7.391,1.004 -13.195,0.066 -5,-1.875 -6.606,-4.742 -8.164,-7.511 -1.063,-1.903 -2.09,-3.723 -4.414,-5.711 -0.239,-0.192 -0.516,-0.27 -0.77,-0.43 1.078,8.141 3.965,29.551 4.762,36.223 2.836,23.457 -1.59,47.078 -12.821,68.269 -4.378,8.301 -0.074,22.16 0.915,25.078 0.191,0.168 0.375,0.356 0.57,0.528 17.051,15.773 31.851,29.465 59.592,22.793 -0.47,-2.391 -0.99,-4.657 -1.51,-6.739 -4.81,-19.05 -9.79,-45.398 -6.11,-62.636 z m -7.1,178.359 c 2.74,0.109 5.45,0.422 8.06,0.883 2.78,-6.469 11.07,-26.828 11.76,-40.91 0.68,-14.153 -0.43,-40.664 -3.84,-61.934 -0.1,-0.625 -0.19,-1.211 -0.3,-1.836 -30.322,7.156 -46.744,-8.039 -64.13,-24.101 -11.996,-11.114 -24.391,-22.571 -42.442,-27.774 -14.222,-4.113 -24.011,-9.504 -31.187,-16.886 2.297,6.593 7.668,16.496 20.207,23.984 6.664,3.976 10.898,11.094 14.98,18.008 2.735,4.621 5.571,9.394 9.086,13.117 9.137,9.656 14.18,14.598 21.555,21.062 l 2.437,2.129 c 6.61,5.742 12.86,11.184 21.735,23.321 8.691,11.914 20.355,31.972 27.015,52.55 2.926,9.063 4.364,14.793 5.064,18.387 z m -12.314,22.512 c -1.171,-2.727 -2.132,-5.274 -0.828,-7.219 0.407,-0.605 1.332,-1.59 3.133,-1.59 h 0.106 l 1.242,0.047 c 4.617,0.059 10.911,0.149 14.461,5.266 2.57,3.691 4.5,5.351 5.61,6.043 v -0.215 c -0.03,-2.625 -0.07,-7.012 3.95,-8.867 2.04,-0.985 3.47,-2.832 6.13,-5.703 -6.44,-2.559 -14.88,-5.047 -23.499,-5.098 -11.867,-0.176 -22.887,2.988 -28.98,5.148 0.804,0.559 1.597,1.16 2.339,1.809 2.059,1.805 3.555,4.391 4.657,7.273 3.789,0.672 8.133,1.661 11.679,3.106 z m -8.492,11.347 c 0.442,3.172 5.813,10.489 7.785,12.391 2.715,2.59 4.106,7.774 3.239,12.012 -0.645,3.222 -3.938,4.277 -6.578,5.137 -0.883,0.293 -2.375,0.742 -2.485,0.507 0.141,1.153 3.852,4.786 9.469,7.258 5.562,2.469 11.916,3.074 13.596,1.336 3.01,-3.094 1.8,-6.973 -0.39,-12.519 -1.52,-3.868 -2.96,-7.539 -1.4,-10.743 0.87,-1.804 2.59,-3.105 5.08,-3.847 1.9,-0.555 4.05,-0.274 6.32,0 5.03,0.683 10.7,1.426 16.8,-5.879 1.45,-1.727 0.14,-6.641 -0.92,-10.547 -1.35,-5.027 -2.64,-9.805 -0.26,-12.918 0.33,-0.43 0.82,-0.918 1.37,-1.414 -1.17,-0.649 -2.78,-1.469 -4.74,-2.375 -3.95,4.785 -4.48,6.621 -8.52,8.484 -0.84,0.41 -0.9,2.004 -0.87,4.043 0.01,2.004 0.04,4.766 -2.48,5.645 -2.56,0.898 -6.79,0.129 -12.73,-8.418 -1.89,-2.742 -5.715,-2.93 -9.536,-2.996 0.254,0.672 0.571,1.414 0.813,1.953 1.254,2.898 2.429,5.633 0.468,7.449 -1.933,1.797 -4.601,0.371 -5.742,-0.223 -2.59,-1.347 -6.258,-2.363 -9.808,-3.105 0.707,3.105 1.16,6.191 1.519,8.769 z m 28.806,42.305 c -4.52,4.649 -14.392,2.098 -19.493,-0.168 -4.668,-2.07 -13.293,-7.363 -12.582,-12.703 0.425,-3.066 3.562,-4.094 6.093,-4.91 0.961,-0.297 2.77,-0.891 3.047,-1.156 0.504,-2.469 -0.308,-5.809 -1.722,-7.176 -0.68,-0.645 -1.934,-2.121 -3.313,-3.926 -6.117,4.461 -9.863,11.649 -9.863,19.285 0,13.157 10.703,23.891 23.887,23.891 13.176,0 23.886,-10.734 23.886,-23.891 0,-5.418 -1.89,-10.625 -5.25,-14.843 -1.5,-0.196 -2.91,-0.352 -3.67,-0.137 -0.59,0.176 -1.58,0.558 -1.86,1.113 -0.55,1.125 0.58,4.008 1.57,6.508 2.06,5.191 4.85,12.34 -0.73,18.113 z M 856.777,504.434 c 4.661,-6.297 12.176,-14.149 15.102,-17.118 -5.242,-9.023 -8.566,-20.246 -11.582,-34.492 -3.129,-14.844 -2.352,-25.285 2.375,-31.894 4.793,-6.719 12.348,-7.629 16.859,-8.192 4.68,-0.578 9.883,0.301 15.364,1.332 1.101,-3.379 3.043,-10.011 3.043,-14.558 0,-1.524 0.089,-2.903 0.167,-4.192 0.274,-4.398 0.446,-7.058 -3.21,-11.242 l -1.942,-2.219 c -0.629,-0.73 -1.207,-1.39 -1.805,-2.07 H 812.25 c -0.988,-0.527 -6.902,0.02 -7.633,0.02 -0.554,0 -5.082,0.39 -6.972,0.261 -0.188,-0.09 -0.395,-0.191 -0.567,-0.23 l 0.024,-0.051 h -16.809 c -0.082,1.383 -0.203,3.301 -0.352,5.531 10.723,0.789 26.114,5.2 28.981,6.41 4.555,1.918 7.449,4.758 8.621,8.411 2.168,6.8 -2.34,14.129 -5.027,18.523 -0.618,0.984 -1.114,1.746 -1.289,2.215 l -0.157,-0.039 c -0.031,0.058 -0.062,0.129 -0.101,0.195 -1.746,3.254 -3.395,6.348 -4.274,8.692 -2.703,7.179 -2.55,31.847 1.465,49.336 2.332,10.136 6.524,15.488 10.965,21.191 3.031,3.848 6.156,7.851 8.563,13.332 3.789,8.586 2.468,18.855 0.183,32.422 l -0.668,3.906 c -1.914,11.152 -3.312,19.18 -0.683,27.801 0.261,0.851 0.753,1.777 1.324,2.863 2.933,5.652 7.836,15.106 2.453,36.942 -1.781,7.207 -0.785,12.675 0.266,18.457 1.183,6.543 2.41,13.281 -0.547,22.277 -2.168,6.57 0.664,20.769 3.269,26.57 5.309,-8.504 12.914,-15.215 17.008,-18.465 -4.488,-5.851 -6.758,-12.578 -4.348,-20.136 2.547,-8 5.461,-13.274 8.016,-17.942 4.23,-7.715 7.023,-12.82 5.641,-25.273 -0.872,-7.754 -1.567,-15.047 -2.215,-21.914 -1.117,-11.903 -2.09,-22.156 -3.633,-31.375 -2.09,-12.453 -3.797,-36.016 3.023,-45.285 z m 1.793,126.367 c -2.441,4.472 -5.211,9.531 -7.613,17.023 -5.316,16.641 21.848,30.36 33.434,36.239 1.5,0.742 2.797,1.406 4.336,2.246 9.386,5.07 21.031,11.379 34.929,8.222 1.875,-0.418 4.407,-0.996 7.297,-1.426 -1.683,-5.488 -6.348,-19.55 -12.418,-28.027 -8.16,-11.406 -21.164,-26.031 -25.746,-29.031 -6.055,-3.926 -14.461,-16.848 -17.305,-26.574 -1.711,-5.828 -6.308,-21.543 -12.793,-28.27 0.629,6.649 1.309,13.719 2.137,21.219 1.567,14.125 -1.883,20.422 -6.258,28.379 z m 156,241.426 c -1.5,8.222 -4.45,15.898 -8.58,22.843 16.98,3.407 30.17,7.344 39.28,11.746 V 882.98 c -6.45,-3.761 -14.85,-7.617 -30.7,-10.753 z m 0.82,-5.653 c 14.63,2.852 23.33,6.336 29.88,9.871 V 739.98 c -0.51,0.879 -0.97,1.719 -1.51,2.61 l -0.75,1.258 c -0.5,0.859 -1.5,1.992 -3.15,3.847 -6.03,6.817 -20.18,22.766 -22.76,43.547 -1.78,14.317 -10.14,25.352 -13.63,29.383 8.04,11.582 12.26,25.098 12.26,39.27 0,2.265 -0.12,4.48 -0.34,6.679 z m -26.62,-48.152 c 1.519,-0.492 3.121,-0.695 4.675,-0.695 1.793,0 3.52,0.261 5.028,0.605 1.031,-1.086 8.107,-9.004 11.667,-20.246 -2.95,0.84 -10.359,6.172 -10.359,6.172 -0.449,0.324 -9.461,6.367 -19.933,6.621 -4.149,0.109 -9.758,-1.719 -12.883,-2.813 -0.008,0.372 0.055,0.813 0.023,1.133 -0.273,2.727 -0.82,5.41 -1.285,7.364 0.125,0 -0.281,1.464 -0.566,2.246 -0.133,0.48 -0.227,0.8 -0.239,0.851 l -0.062,-0.019 c -0.898,2.832 -1.137,5.918 -0.387,8.711 2.133,8.054 1.293,22.468 0.578,30.351 -0.433,4.91 -3.906,17.274 -11.312,21.875 -2.465,1.512 -5.309,2.617 -8.266,3.367 3.028,2.571 6.735,4.571 14.242,4.18 3.219,-0.184 6.575,-2.344 9.465,-6.035 4.696,-6.024 7.145,-14.688 5.942,-21.074 l -0.34,-1.786 c -2.008,-10.128 -6.723,-33.867 14.012,-40.808 z m -84.954,11.297 c -2.113,3.504 -4.304,7.148 -4.16,10.652 0.153,3.899 1.699,6.379 3.356,9.004 1.808,2.871 3.683,5.832 3.304,10.227 -0.558,6.648 1.34,22.488 10.719,26.336 7.91,3.3 12.418,1.464 15.43,-1.192 -3.836,-0.488 -7.285,-1.687 -9.731,-3.633 -6.742,-5.351 -8.589,-10.508 -9.589,-15.293 -0.532,-2.578 -2.145,-18.992 -1.79,-23.933 0.418,-6.321 2.821,-12.473 4.071,-15.129 l -0.039,-0.02 c 0.019,-0.019 1.328,-2.031 1.886,-6.347 0.532,-4.09 0.739,-12.938 0.696,-16.981 -2.715,-0.793 -8.274,-2.219 -13.453,-2.316 -1.961,-0.059 -4.047,0.039 -5.075,0.097 -0.632,0.059 -1.203,0.071 -1.918,0.215 -4.437,0.84 -8.031,1.797 -10.492,2.52 -0.847,2.949 -1.445,7.402 0.324,8.222 1.258,0.54 3.188,0.157 5.243,-0.234 4.113,-0.801 9.711,-1.902 13.828,4.121 3,4.356 0.144,9.094 -2.61,13.684 z m 2.957,95.742 v 54.277 c 0,8.016 26.75,26.642 31.457,30.012 7.969,-5.87 26.551,-21.684 28.215,-32.367 v -51.367 c -6.269,1.875 -12.886,2.91 -19.761,2.91 -7.508,0 -14.727,-1.231 -21.504,-3.465 z m 6.372,-5.285 c -12.137,-6.785 -21.997,-17.137 -28.223,-29.629 -18.715,2.656 -34.883,7.266 -46.078,12.707 1.793,0.84 3.812,3.035 3.812,3.035 1.77,2.063 2.856,4.668 2.856,7.551 0,2.344 -0.703,4.512 -1.903,6.336 z M 767.191,1032.8 v 54.71 h 133.422 v -54.71 h -11.238 v -5.28 h 11.238 V 925.461 h -8.195 C 888.5,954.816 843.137,1025 836.617,1034.97 v 26.64 h -6.148 v -26.79 c -6.918,-10.41 -50.797,-77.484 -54.586,-109.359 h -8.692 v 102.059 h 11.239 v 5.28 z M 687.578,920.176 c -8.683,-4.824 -16.176,-11.531 -22.043,-19.512 -19.262,3.75 -34.07,8.281 -42.808,13.145 l -0.11,-0.164 v 6.531 z m -35.73,87.834 c 8.504,-6.26 28.468,-22.893 28.992,-33.869 v -48.68 h -58.223 v 58.672 c 10.598,10.262 24.731,20.657 29.231,23.877 z m -29.231,24.79 v 6.47 l 58.223,31.84 v -83.833 c -7.914,11.004 -21.992,21.743 -26.453,25.013 v 20.93 h -5.477 v -21.23 c -4.14,-2.94 -15.996,-11.61 -26.293,-21.033 v 36.563 h 12.598 v 5.28 z M 635.855,510.313 V 364.27 l -13.238,0.011 v 512.36 c 5.688,-2.95 14.418,-6.368 29.867,-9.414 -0.254,-2.422 -0.398,-4.844 -0.398,-7.332 0,-15.442 4.992,-30.012 14.406,-42.161 -8.422,-5.671 -20.512,-14.921 -30.051,-28.953 -6.226,-8.332 -6.921,-41.027 -6.929,-41.347 -0.203,-10.887 3.156,-27.188 5.004,-33.477 2.093,-7.16 1.238,-14.074 0.558,-19.629 -0.269,-2.219 -0.519,-4.238 -0.558,-6.008 -0.082,-2.773 -1.289,-8.183 -2.469,-13.398 -1.359,-6.035 -2.633,-11.758 -2.535,-14.863 0.183,-7.149 3.535,-13.512 6.343,-17.715 V 538.223 l -5.882,-2.129 z m 21.086,-166.872 0.036,20.778 -15.727,0.043 v 10.609 h 25.508 l 0.035,-0.141 0.176,0.141 h 24.121 c -2.789,-3.93 -4.797,-7.832 -5.387,-9.769 -1.152,-3.801 -0.805,-9.243 7.383,-13.622 1.637,-0.89 3.715,-1.269 5.957,-1.269 6.617,0 14.602,3.301 16.582,6.519 1.938,3.11 2.301,11.27 1.484,17.79 h 10.594 c 0.926,-2.43 2.563,-4.731 5.473,-5.86 l 0.617,-0.23 c 2.305,-0.918 4.211,-1.52 6.125,-1.52 3.184,0 6.414,1.668 11.582,6.32 2.227,-4.031 4.254,-6.582 6.391,-7.878 1.586,-0.961 3.457,-3.262 5.273,-5.461 3.402,-4.153 7.246,-8.852 12.305,-8.852 1,0 2.219,-0.051 3.531,-0.098 1.719,-0.07 3.59,-0.16 5.457,-0.16 6.777,0 13.723,0.938 15.02,6.391 2.144,8.976 -7.211,12.887 -12.805,15.226 -1.582,0.672 -3.02,1.25 -3.992,1.872 -0.059,0.031 -0.184,0.179 -0.278,0.25 h 103.77 c -1.719,-1.661 -3.453,-3.051 -5.344,-4.09 -6.449,-3.571 -12.816,-11.071 -11.887,-17.989 0.469,-3.402 1.102,-6.742 1.563,-9 z M 803.34,314.559 v -8.829 c -6.344,0.54 -11.93,0.79 -16.129,0.891 -11.586,0.34 -18.969,-0.871 -25.707,-2.769 v 34.32 h 32.715 l -15.797,-23.563 z m -15.32,4.91 12.57,18.703 h 2.75 v -18.703 z m 180.371,59.453 c 0,0 -0.328,7.867 -0.848,11.469 -0.727,5.187 -2.152,9.308 -3.332,12.078 1.055,0.441 2.066,1.011 3.035,1.832 3.063,2.578 4.477,5.109 5.613,7.129 1.383,2.48 2.219,3.968 4.899,5.031 4.492,0.687 7.73,0.25 11.152,-0.231 0.289,-0.039 0.57,-0.082 0.863,-0.121 -3.074,-7.199 -10.261,-24.828 -10.039,-31.738 0.071,-1.91 0.516,-3.691 1.102,-5.449 h -0.012 c 0.004,0 0.016,-0.012 0.02,-0.031 0.539,-1.313 3.59,-7.641 4.715,-9.532 1.961,-3.39 4.207,-7.199 6.261,-12.039 1.035,-2.461 1.094,-4.468 0.168,-6.211 -1.883,-3.539 -7.558,-5.359 -9.336,-5.711 -5.101,-0.468 -11.636,-0.128 -13.187,1.051 -1.266,0.961 -0.992,7.41 -0.86,10.512 0.106,2.469 -0.269,20.609 -0.214,21.961 z m 76.809,40.883 V 364.27 l -12.95,0.031 -0.24,50.238 c 5.58,0.981 10.03,2.77 13.19,5.266 z m -0.07,6.933 c -0.31,-0.39 -0.68,-0.722 -1.07,-1.035 -0.69,-0.808 -1.52,-1.504 -2.53,-1.992 -3.84,-2.879 -9.59,-4.023 -13.61,-4.441 -3.72,-0.5 -8.18,3.191 -10.5,5.574 5.5,8.215 3.9,18.789 3.83,19.172 -0.17,1.355 -4.39,33.347 -7.63,48.476 -2.71,12.684 -0.55,34.055 6.08,60.242 1.04,4.133 2,8.907 2.85,14.219 3.47,21.602 4.6,48.586 3.9,63.008 -0.69,14.453 -8.53,34.23 -11.77,41.828 0.74,0.184 1.48,0.383 2.21,0.594 27.61,-32.899 28.01,-56.035 28.17,-68.574 l 0.14,-177.09 c -0.01,0.019 -0.05,0.019 -0.07,0.019 z m 5.42,498.723 v 58.621 c 86.94,-66.434 138.73,-170.801 138.73,-280.215 0,-15.058 -1.01,-30 -2.92,-44.765 H 1150 c 0,0 -0.22,38.007 -0.31,65.277 l 20.1,-18.703 3.91,4.187 -24.26,22.481 c -0.02,11.301 -0.04,35.82 -0.04,35.82 0.52,-1.258 1.75,-2.168 3.21,-2.168 1.91,0 3.47,1.555 3.47,3.477 0,1.914 -1.56,3.476 -3.47,3.476 -1.46,0 -2.69,-0.898 -3.21,-2.168 v 9.114 c 0.52,-1.262 1.75,-2.168 3.21,-2.168 1.91,0 3.47,1.55 3.47,3.476 0,1.914 -1.56,3.469 -3.47,3.469 -1.46,0 -2.69,-0.891 -3.21,-2.16 v 9.109 c 0.52,-1.277 1.75,-2.168 3.21,-2.168 1.91,0 3.47,1.563 3.47,3.488 0,1.903 -1.56,3.465 -3.47,3.465 -1.46,0 -2.69,-0.898 -3.21,-2.168 v 3.918 h -1.28 c 1.11,0.567 1.89,1.699 1.89,3.035 0,1.926 -1.56,3.481 -3.48,3.481 -1.92,0 -3.47,-1.555 -3.47,-3.481 0,-1.336 0.77,-2.468 1.88,-3.035 h -1.28 v -3.574 c -0.59,1.063 -1.69,1.824 -3,1.824 -1.91,0 -3.47,-1.562 -3.47,-3.465 0,-1.925 1.56,-3.488 3.47,-3.488 1.31,0 2.41,0.754 3,1.828 v -8.429 c -0.59,1.066 -1.69,1.82 -3,1.82 -1.91,0 -3.47,-1.555 -3.47,-3.469 0,-1.926 1.56,-3.476 3.47,-3.476 1.31,0 2.41,0.761 3,1.816 v -8.418 c -0.59,1.063 -1.69,1.824 -3,1.824 -1.91,0 -3.47,-1.562 -3.47,-3.476 0,-1.922 1.56,-3.477 3.47,-3.477 1.31,0 2.41,0.742 3,1.836 v -33.926 l -30.16,-0.086 c 0,0.723 -0.37,112.325 -0.37,112.325 0.52,-1.262 1.76,-2.168 3.21,-2.168 1.92,0 3.47,1.57 3.47,3.484 0,1.914 -1.55,3.469 -3.47,3.469 -1.45,0 -2.69,-0.891 -3.21,-2.16 v 9.101 c 0.52,-1.258 1.76,-2.168 3.21,-2.168 1.92,0 3.47,1.563 3.47,3.488 0,1.914 -1.55,3.465 -3.47,3.465 -1.45,0 -2.69,-0.898 -3.21,-2.156 v 9.09 c 0.52,-1.25 1.76,-2.149 3.21,-2.149 1.92,0 3.47,1.543 3.47,3.481 0,1.922 -1.55,3.465 -3.47,3.465 -1.45,0 -2.69,-0.899 -3.21,-2.16 v 3.906 h -1.27 c 1.1,0.566 1.88,1.691 1.88,3.039 0,1.894 -1.56,3.465 -3.48,3.465 -1.92,0 -3.48,-1.571 -3.48,-3.465 0,-1.348 0.78,-2.473 1.89,-3.039 h -1.28 v -3.555 c -0.58,1.055 -1.69,1.809 -3,1.809 -1.91,0 -3.48,-1.543 -3.48,-3.465 0,-1.938 1.57,-3.481 3.48,-3.481 1.31,0 2.42,0.754 3,1.817 v -8.418 c -0.58,1.066 -1.69,1.816 -3,1.816 -1.91,0 -3.48,-1.551 -3.48,-3.465 0,-1.925 1.57,-3.488 3.48,-3.488 1.31,0 2.42,0.754 3,1.836 v -8.426 c -0.58,1.055 -1.69,1.817 -3,1.817 -1.91,0 -3.48,-1.555 -3.48,-3.469 0,-1.914 1.57,-3.484 3.48,-3.484 1.31,0 2.42,0.761 3,1.824 v -62.227 c -10.77,49.055 -38.07,85.832 -56.84,99.043 v 37.559 h 14.71 v 5.285 z M 907.766,1101.59 v -8.79 H 759.703 v 8.79 z m -71.594,16.71 h 9.766 v 5.27 h -9.766 v 13.25 c 26.965,-0.65 50.961,-12.58 60.516,-29.95 h -60.516 z m -0.469,26.81 c -241.664,0 -438.293,-196.622 -438.293,-438.282 0,-153.605 79.504,-288.93 199.461,-367.219 l 2.27,-1.437 c 68.293,-43.992 149.468,-69.633 236.562,-69.633 241.667,0 438.277,196.629 438.277,438.289 0,241.66 -196.61,438.282 -438.277,438.282"
         style="fill:currentColor;fill-opacity:1;fill-rule:nonzero;stroke:none"
         transform="matrix(0.13333333,0,0,-0.13333333,0,189.12)" />
    </g>
  </g>
</svg>
